<?xml version="1.0" encoding="UTF-8" standalone="no"?>
<svg
   xmlns:dc="http://purl.org/dc/elements/1.1/"
   xmlns:cc="http://creativecommons.org/ns#"
   xmlns:rdf="http://www.w3.org/1999/02/22-rdf-syntax-ns#"
   xmlns:svg="http://www.w3.org/2000/svg"
   xmlns="http://www.w3.org/2000/svg"
   xmlns:sodipodi="http://sodipodi.sourceforge.net/DTD/sodipodi-0.dtd"
   xmlns:inkscape="http://www.inkscape.org/namespaces/inkscape"
   height="128"
   width="128"
   version="1.1"
   id="svg905"
   sodipodi:docname="disability_symbols.svg"
   inkscape:version="1.0.2 (e86c8708, 2021-01-15)">
  <metadata
     id="metadata911">
    <rdf:RDF>
      <cc:Work
         rdf:about="">
        <dc:format>image/svg+xml</dc:format>
        <dc:type
           rdf:resource="http://purl.org/dc/dcmitype/StillImage" />
        <dc:title />
      </cc:Work>
    </rdf:RDF>
  </metadata>
  <defs
     id="defs909" />
  <sodipodi:namedview
     pagecolor="#ffffff"
     bordercolor="#666666"
     borderopacity="1"
     objecttolerance="10"
     gridtolerance="10"
     guidetolerance="10"
     inkscape:pageopacity="0"
     inkscape:pageshadow="2"
     inkscape:window-width="1920"
     inkscape:window-height="1027"
     id="namedview907"
     showgrid="false"
     inkscape:zoom="1.8819882"
     inkscape:cx="133.90834"
     inkscape:cy="81.982168"
     inkscape:window-x="0"
     inkscape:window-y="25"
     inkscape:window-maximized="1"
     inkscape:current-layer="svg905"
     inkscape:document-rotation="0" />
  <g
     transform="matrix(6.4064607,0,0,-6.4077601,7.5724363,1.2788479)"
     stroke="#000000"
     stroke-dasharray="none"
     stroke-miterlimit="4"
     stroke-width="0.04"
     fill="#003984"
     id="g839"
     style="fill:#1d2445;fill-opacity:1">
    <path
       id="path837"
       style="fill:#1d2445;fill-opacity:1"
       d="M 7.5722656 1.2792969 C 4.1063704 1.2792969 1.28125 4.1037143 1.28125 7.5703125 L 1.28125 55.783203 C 1.28125 59.249801 4.1063704 62.076172 7.5722656 62.076172 L 55.792969 62.076172 C 59.258864 62.076172 62.078125 59.249801 62.078125 55.783203 L 62.078125 7.5703125 C 62.078125 4.1037143 59.258864 1.2792969 55.792969 1.2792969 L 7.5722656 1.2792969 z M 26.628906 6.9238281 C 28.980077 6.9238281 30.871094 8.8143677 30.871094 11.166016 C 30.871094 13.492033 28.980077 15.408203 26.628906 15.408203 C 24.290548 15.408203 22.388672 13.492033 22.388672 11.166016 C 22.388672 8.8143677 24.290548 6.9238281 26.628906 6.9238281 z M 26.703125 16.181641 C 28.958199 16.059893 30.867729 17.809162 31.021484 20.039062 L 31.296875 23.679688 L 39.228516 23.679688 C 40.304801 23.718134 41.144531 24.543734 41.144531 25.607422 C 41.144531 26.683926 40.279175 27.484751 39.228516 27.548828 L 31.521484 27.548828 L 31.625 30.753906 L 42.232422 30.753906 C 43.046042 30.779537 43.834751 31.201464 44.283203 31.951172 L 51.515625 44.447266 C 52.181897 45.671148 51.830038 47.131084 50.664062 47.835938 C 49.49168 48.534383 47.934397 48.08651 47.261719 46.984375 L 41.644531 37.244141 L 27.896484 37.244141 C 25.654223 37.256956 23.763912 35.641702 23.578125 33.392578 L 22.833984 20.513672 C 22.725075 18.264548 24.435238 16.309796 26.703125 16.181641 z M 20.945312 25.748047 L 21.175781 29.689453 C 18.485068 32.002655 16.755859 35.405584 16.755859 39.224609 C 16.755859 46.196252 22.400006 51.828125 29.357422 51.828125 C 35.411527 51.828125 40.432851 47.522671 41.630859 41.826172 L 43.873047 45.708984 C 41.380934 51.264512 35.84076 55.166016 29.357422 55.166016 C 20.548538 55.166016 13.417969 48.022464 13.417969 39.224609 C 13.417969 33.521703 16.441571 28.561054 20.945312 25.748047 z "
       transform="matrix(0.15609243,0,0,-0.15606077,-1.182,0.19957799)" />
  </g>
  <g
     transform="matrix(6.4064607,0,0,-6.4077601,26.629042,15.408673)"
     stroke="#000000"
     stroke-dasharray="none"
     stroke-miterlimit="4"
     stroke-width="0.04"
     fill="#ffffff"
     id="g843" />
  <g
     transform="matrix(6.4064607,0,0,-6.4077601,47.262361,46.984069)"
     stroke="#000000"
     stroke-dasharray="none"
     stroke-miterlimit="4"
     stroke-width="0.05"
     fill="#ffffff"
     id="g847" />
  <g
     transform="matrix(6.4064607,0,0,-6.4077601,29.356864,51.827771)"
     stroke="#000000"
     stroke-dasharray="none"
     stroke-miterlimit="4"
     stroke-width="0.04"
     fill="#ffffff"
     id="g851" />
  <g
     transform="matrix(6.406464,0,0,-6.407762,7.5724401,65.912511)"
     stroke="#000000"
     stroke-dasharray="none"
     stroke-miterlimit="4"
     stroke-width="0.04"
     fill="#003984"
     id="g859"
     style="fill:#1d2445;fill-opacity:1">
    <path
       id="path857"
       style="fill:#1d2445;fill-opacity:1;stroke:none"
       d="M 7.5722656 65.912109 C 4.1063686 65.912109 1.28125 68.738479 1.28125 72.205078 L 1.28125 120.41602 C 1.28125 123.88261 4.1063686 126.70898 7.5722656 126.70898 L 55.792969 126.70898 C 59.258866 126.70898 62.078125 123.88261 62.078125 120.41602 L 62.078125 72.205078 C 62.078125 68.738479 59.258866 65.912109 55.792969 65.912109 L 7.5722656 65.912109 z M 19.974609 74.396484 C 20.423062 74.223475 21.339477 75.645709 20.634766 76.613281 C 20.186313 77.202795 20.019777 77.299023 19.673828 77.798828 C 18.4566 79.266206 15.567064 82.784219 16.931641 81.791016 C 17.905423 81.143832 19.122523 79.913328 20.775391 79.054688 C 21.435256 78.676627 24.349741 77.338371 25.080078 77.287109 C 26.681694 77.274294 28.303654 76.665219 28.841797 77.0625 C 29.719482 77.773762 28.943468 79.029394 28.027344 79.279297 C 27.130439 79.542015 27.195591 79.465797 25.888672 79.728516 C 24.453624 80.055311 25.304083 80.094244 22.337891 80.978516 C 21.338482 82.298515 17.284474 84.861625 19.007812 83.945312 C 20.833658 82.996964 23.786552 82.131475 24.113281 82.169922 C 24.952528 82.330116 26.393471 82.130235 27.732422 82.457031 C 28.821521 82.694118 28.931291 83.431076 30.033203 84.167969 C 30.795572 84.610104 31.620853 85.1878 31.806641 85.572266 C 31.595227 86.110518 31.345407 86.412342 30.845703 86.751953 C 29.481126 87.700302 27.227274 84.95148 26.990234 84.970703 C 26.896699 85.029265 26.299324 85.141812 23.587891 85.201172 C 23.19069 85.239618 19.506877 88.103718 19.449219 88.238281 C 19.160928 89.000805 19.256161 88.788109 19.595703 88.525391 C 21.094816 87.538595 24.048637 87.648986 25.080078 87.642578 C 25.739944 87.648986 28.392223 89.851644 29.654297 90.832031 C 30.583234 91.479215 30.204996 92.094793 30.320312 92.972656 C 30.410006 94.094015 30.307434 94.786777 29.955078 95.863281 C 30.506034 96.087553 30.621832 96.362241 29.583984 98.451172 C 28.879273 99.976219 29.071436 100.69533 28.257812 101.63086 C 27.617166 102.34212 28.052296 102.03398 27.142578 102.36719 C 26.079105 102.78369 25.426131 102.79536 24.324219 103.10938 C 22.786667 103.58355 21.947708 104.00691 20.410156 104.51953 C 19.410748 104.8207 18.898393 105.19959 17.892578 105.26367 C 16.816292 105.33416 16.245349 104.87267 15.15625 104.80859 C 12.254122 104.71248 10.761421 105.37181 7.9746094 106.96094 C 7.9874223 106.98657 4.6822322 102.91789 5.6816406 95.638672 C 6.7579266 95.061973 7.5201333 94.850625 8.1992188 93.857422 C 10.403042 90.781696 9.7380483 88.814309 12.050781 84.457031 C 12.480014 83.681692 12.8242 83.508753 13.304688 82.835938 C 14.07987 81.708168 14.252939 80.868376 15.15625 79.804688 C 15.68158 79.112646 16.079903 78.838109 16.630859 78.242188 C 17.367603 77.415583 18.168664 76.236129 18.412109 76.101562 C 19.071975 75.723505 19.423653 74.646387 19.974609 74.396484 z M 54.892578 85.873047 C 54.866952 85.885862 58.184955 89.967732 57.185547 97.259766 C 56.109261 97.810833 55.347054 98.042126 54.667969 98.964844 C 52.457739 102.09183 53.131093 104.0585 50.818359 108.44141 C 50.376313 109.19111 50.042985 109.37704 49.5625 109.99219 C 48.787318 111.16481 48.601436 112.00333 47.710938 113.10547 C 47.185606 113.75906 46.789237 114.0347 46.238281 114.65625 C 45.488725 115.45722 44.687823 116.63667 44.386719 116.79688 C 43.797324 117.1493 43.444393 118.22519 42.90625 118.42383 C 42.444985 118.6481 41.515757 117.2271 42.246094 116.28516 C 42.681733 115.67001 42.84741 115.57378 43.193359 115.09961 C 44.410588 113.61942 47.287311 110.08736 45.935547 111.0293 C 44.961764 111.72774 43.744665 112.95948 42.091797 113.84375 C 41.431931 114.19618 38.518305 115.53405 37.800781 115.54688 C 36.186352 115.59814 34.552674 116.20721 34.027344 115.77148 C 33.149658 115.11148 33.910906 113.84341 34.839844 113.61914 C 35.736749 113.33079 35.673003 113.40663 36.986328 113.10547 C 38.402157 112.81712 37.563963 112.77928 40.542969 111.84375 C 41.529564 110.58142 45.57076 108.01276 43.873047 108.89062 C 42.034392 109.87743 39.080636 110.74205 38.753906 110.65234 C 37.901847 110.54341 36.473717 110.74257 35.134766 110.44141 C 34.03926 110.17869 33.937849 109.44118 32.835938 108.73633 C 32.073567 108.26215 31.24524 107.68501 31.072266 107.32617 C 31.270866 106.76229 31.508967 106.46046 32.021484 106.14648 C 33.363492 105.18861 35.557484 107.82617 35.855469 107.91406 C 35.899334 107.8489 36.420976 107.7169 39.279297 107.62695 C 39.676498 107.63977 43.360311 104.76994 43.417969 104.67383 C 43.70626 103.87286 43.611027 104.08347 43.271484 104.29492 C 41.772372 105.33298 38.819409 105.22382 37.800781 105.25586 C 37.128103 105.22382 34.474964 103.02008 33.212891 102.07812 C 32.283953 101.39249 32.649378 100.79083 32.546875 99.925781 C 32.457185 98.791607 32.546941 98.086029 32.912109 97.035156 C 32.361153 96.785254 32.245515 96.509468 33.212891 94.458984 C 33.988073 92.89549 33.782941 92.179433 34.609375 91.269531 C 35.250021 90.532639 34.814891 90.839544 35.724609 90.455078 C 36.788082 90.089836 37.441763 90.077413 38.466797 89.789062 C 40.081226 89.289257 40.91948 88.864799 42.457031 88.390625 C 43.45644 88.051014 43.968795 87.673212 44.974609 87.634766 C 46.050895 87.538649 46.621838 88.000856 47.710938 88.013672 C 50.600253 88.167458 52.105766 87.500618 54.892578 85.873047 z M 24.253906 90.904297 C 21.460688 92.422936 21.383556 91.716743 20.185547 92.607422 C 19.173326 93.331499 19.232361 93.556533 18.707031 95.337891 C 18.22014 96.888569 19.936046 96.733665 21.371094 99.412109 C 23.850395 98.515023 25.19005 98.938491 26.029297 99.041016 C 26.407278 99.066647 26.342187 97.547291 28.693359 95.785156 C 27.706764 94.97137 27.20789 92.620237 27.220703 92.607422 C 25.401267 92.06917 24.253906 90.86585 24.253906 90.904297 z M 41.496094 93.421875 C 39.016792 94.357408 37.679091 93.934315 36.839844 93.857422 C 36.461862 93.80616 36.525 95.325516 34.173828 97.113281 C 35.160424 97.901436 35.659297 100.25219 35.646484 100.22656 C 37.46592 100.80326 38.613281 102.00781 38.613281 102.00781 C 41.4065 100.45073 41.470819 101.15569 42.681641 100.22656 C 43.681049 99.540932 43.636779 99.329262 44.162109 97.490234 C 44.649001 95.997226 42.918329 96.138766 41.496094 93.421875 z "
       transform="matrix(0.15609235,0,0,-0.15606073,-1.1819999,10.286354)" />
  </g>
  <g
     transform="matrix(6.406464,0,0,-6.407762,34.173968,97.112469)"
     stroke="#000000"
     stroke-dasharray="none"
     stroke-miterlimit="4"
     stroke-width="0.04"
     fill="#ffffff"
     id="g863" />
  <g
     transform="matrix(6.406464,0,0,-6.407762,72.206105,65.912445)"
     stroke="#000000"
     stroke-dasharray="none"
     stroke-miterlimit="4"
     stroke-width="0.04"
     fill="#003984"
     id="g875"
     style="fill:#1d2445;fill-opacity:1">
    <path
       id="path873"
       style="fill:#1d2445;fill-opacity:1"
       d="M 72.207031 65.912109 C 68.741134 65.912109 65.927734 68.738479 65.927734 72.205078 L 65.927734 120.41602 C 65.927734 123.88261 68.741134 126.70898 72.207031 126.70898 L 120.42773 126.70898 C 123.89363 126.70898 126.72461 123.88261 126.72461 120.41602 L 126.72461 72.205078 C 126.72461 68.738479 123.89363 65.912109 120.42773 65.912109 L 72.207031 65.912109 z M 87.986328 68.830078 C 90.286249 68.804447 92.17797 70.707974 92.152344 73.001953 C 92.17797 75.353602 90.286249 77.237733 87.986328 77.244141 C 85.628749 77.237733 83.733828 75.353602 83.740234 73.001953 C 83.733828 70.707974 85.628749 68.804447 87.986328 68.830078 z M 88.015625 78.742188 C 89.284906 78.815076 90.436004 79.184096 90.785156 79.703125 L 104.26367 96.054688 C 106.06389 98.553715 102.45061 101.17597 100.65039 98.708984 L 89.439453 85.451172 C 89.272885 85.252531 88.983757 85.232384 88.785156 85.392578 C 88.586556 85.55918 88.560542 85.854642 88.720703 86.046875 L 92.117188 90.056641 L 92.1875 100.40039 L 84.896484 120.73242 C 83.743321 124.49378 77.984414 122.86577 79.150391 118.95703 L 85.044922 100.54688 L 85.177734 87.732422 L 82.46875 92.960938 L 83.570312 100.10547 C 84.48003 101.54081 81.225992 104.20586 79.585938 101.57227 L 77.970703 91.486328 L 84.53125 79.554688 C 85.357684 78.891484 86.746344 78.669299 88.015625 78.742188 z M 104.86133 99.728516 C 105.04712 99.743734 105.22468 99.829184 105.34961 99.976562 C 105.36242 99.995786 105.37586 100.00867 105.38867 100.02148 L 117.86914 121.68555 C 118.05493 121.98671 118.00204 122.40299 117.72656 122.64648 C 117.41265 122.90279 116.95212 122.87062 116.68945 122.55664 C 116.68945 122.55023 116.67688 122.53235 116.66406 122.51953 L 104.20312 100.85352 C 104.02374 100.53313 104.04874 100.13552 104.32422 99.898438 C 104.48118 99.767078 104.67554 99.713297 104.86133 99.728516 z M 92.490234 102.26367 L 99.107422 118.73828 C 100.70904 122.4676 95.219974 124.60805 93.650391 120.94922 L 89.787109 109.83203 L 92.490234 102.26367 z "
       transform="matrix(0.15609235,0,0,-0.15606073,-11.27082,10.286344)" />
  </g>
  <g
     transform="matrix(6.406464,0,0,-6.407762,92.151374,73.001994)"
     stroke="#000000"
     stroke-dasharray="none"
     stroke-miterlimit="4"
     stroke-width="0.04"
     fill="#ffffff"
     id="g879" />
  <g
     transform="matrix(6.406464,0,0,-6.407762,104.26348,96.055274)"
     stroke="#000000"
     stroke-dasharray="none"
     stroke-miterlimit="4"
     stroke-width="0.04"
     fill="#ffffff"
     id="g883" />
  <g
     transform="matrix(6.406464,0,0,-6.407762,99.10812,118.73873)"
     stroke="#000000"
     stroke-dasharray="none"
     stroke-miterlimit="4"
     stroke-width="0.04"
     fill="#ffffff"
     id="g887" />
  <g
     transform="matrix(6.406464,0,0,-6.407762,116.66378,122.51862)"
     stroke="#000000"
     stroke-dasharray="none"
     stroke-miterlimit="4"
     stroke-width="0.04"
     fill="#ffffff"
     id="g891" />
  <g
     transform="matrix(6.406464,0,0,-6.407762,72.206105,1.2788301)"
     stroke="#000000"
     stroke-dasharray="none"
     stroke-miterlimit="4"
     stroke-width="0.04"
     fill="#003984"
     id="g899"
     style="fill:#1d2445;fill-opacity:1">
    <path
       id="path897"
       style="fill:#1d2445;fill-opacity:1"
       d="M 72.207031 1.2792969 C 68.741134 1.2792969 65.927734 4.1037133 65.927734 7.5703125 L 65.927734 55.783203 C 65.927734 59.249802 68.741134 62.076172 72.207031 62.076172 L 120.42773 62.076172 C 123.89363 62.076172 126.72461 59.249802 126.72461 55.783203 L 126.72461 7.5703125 C 126.72461 4.1037133 123.89363 1.2792969 120.42773 1.2792969 L 72.207031 1.2792969 z M 93.025391 5.4140625 C 102.08044 5.6168348 107.64722 9.775168 110.87891 13.96875 C 112.49475 16.065542 113.53922 18.168144 114.18555 19.8125 C 114.50853 20.629229 114.72355 21.325274 114.86914 21.851562 C 114.94196 22.114692 115.00021 22.333651 115.03711 22.505859 C 115.07401 22.67805 115.09942 22.768553 115.10742 22.910156 C 115.13805 23.42545 115.00094 23.926477 114.87891 24.515625 C 114.75688 25.104773 114.62896 25.759351 114.60156 26.416016 C 114.54092 27.867421 115.54505 29.368722 116.70117 30.802734 C 117.27923 31.519756 117.88147 32.212073 118.36328 32.900391 C 118.84508 33.588674 119.24139 34.27069 119.27539 35.048828 C 119.30726 35.777098 118.88753 36.389153 118.4043 36.712891 C 117.92107 37.036658 117.38525 37.186771 116.9082 37.335938 C 116.43114 37.485105 116.01425 37.642857 115.83984 37.773438 C 115.66542 37.904022 115.65047 37.854486 115.73047 38.167969 C 115.97897 39.14118 116.14687 39.519273 116.23438 39.683594 C 116.27819 39.765755 116.30018 39.786404 116.36328 39.910156 C 116.4264 40.033942 116.47966 40.264928 116.47266 40.416016 C 116.4431 41.023066 116.14932 41.454171 115.87891 41.732422 C 115.9906 41.81773 116.09928 41.931183 116.17578 42.080078 C 116.33344 42.386993 116.31771 42.743426 116.22461 43.099609 C 115.76037 44.875988 115.73906 45.302134 115.78906 45.693359 C 115.83902 46.084614 116.02702 46.654393 115.97852 48.257812 C 115.93106 49.825971 115.02705 50.790622 114.00781 51.167969 C 112.98859 51.545313 111.88417 51.504131 111.10742 51.525391 C 108.69003 51.59161 107.64564 52.271805 107.12695 52.970703 C 106.60828 53.669602 106.57303 54.499477 106.58203 55.070312 A 0.6337407 0.63374043 0 1 1 105.31445 55.089844 C 105.30478 54.471737 105.31832 53.282036 106.10742 52.21875 C 106.89665 51.155464 108.42283 50.330523 111.07812 50.257812 C 111.90737 50.235103 112.88607 50.23451 113.57227 49.980469 C 114.25846 49.726433 114.67544 49.391281 114.71094 48.21875 C 114.75648 46.713453 114.6077 46.434818 114.5332 45.851562 C 114.45875 45.268276 114.53247 44.592272 115.00781 42.773438 C 115.02961 42.690607 115.0267 42.740816 115.02734 42.722656 C 114.97442 42.710676 114.92312 42.698857 114.79102 42.654297 C 114.70064 42.623808 114.57693 42.58681 114.43359 42.435547 C 114.29027 42.284292 114.20743 41.995523 114.23633 41.802734 C 114.28639 41.469178 114.48462 41.29061 114.61133 41.177734 C 114.73803 41.064856 114.84253 40.987076 114.92773 40.910156 C 115.08562 40.767519 115.17081 40.669337 115.19531 40.40625 C 115.17411 40.371979 115.16439 40.365954 115.11719 40.277344 C 114.96749 39.996377 114.76703 39.516886 114.50391 38.486328 C 114.32816 37.797917 114.63523 37.100631 115.08789 36.761719 C 115.54055 36.422808 116.05386 36.278783 116.5332 36.128906 C 117.01253 35.979013 117.45224 35.830846 117.70117 35.664062 C 117.9501 35.497282 118.02161 35.425079 118.00781 35.109375 C 117.99251 34.759468 117.74992 34.231204 117.32422 33.623047 C 116.89853 33.01492 116.31584 32.331935 115.7207 31.59375 C 114.53046 30.117315 113.24898 28.403212 113.33398 26.367188 C 113.36664 25.585312 113.51867 24.856022 113.64258 24.257812 C 113.7665 23.659603 113.85014 23.163756 113.83984 22.990234 C 113.84254 23.035354 113.83148 22.916586 113.80078 22.773438 C 113.7701 22.630261 113.71914 22.42903 113.65234 22.1875 C 113.51873 21.704458 113.31326 21.049748 113.00781 20.277344 C 112.39693 18.732474 111.39577 16.733004 109.86914 14.751953 C 106.81584 10.789657 101.67987 6.8878337 92.998047 6.6933594 C 84.634323 6.505795 79.719988 10.053166 76.820312 14.1875 C 73.920479 18.321836 73.108322 23.134261 73.195312 25.068359 C 73.29746 27.339409 73.736332 33.026451 75.939453 35.970703 C 79.089837 40.180761 81.791344 43.312425 81.939453 49.078125 C 81.991254 51.094885 81.803062 52.576571 81.601562 53.564453 C 81.400068 54.552301 81.166016 55.089844 81.166016 55.089844 A 0.63585361 0.63585334 0 1 1 80.007812 54.564453 C 80.007812 54.564453 80.18325 54.208603 80.365234 53.316406 C 80.547221 52.424208 80.721305 51.033747 80.671875 49.109375 C 80.53342 43.720705 78.098062 40.969783 74.919922 36.722656 C 72.318608 33.246063 72.033528 27.437594 71.929688 25.128906 C 71.823867 22.780551 72.685964 17.87799 75.78125 13.464844 C 78.876696 9.0516978 84.287543 5.230011 93.027344 5.4257812 L 93.025391 5.4140625 z M 94.794922 10.183594 C 95.136027 10.171021 95.586367 10.271086 96.210938 10.628906 C 96.324889 10.694186 96.891293 9.9442525 98.046875 10.898438 C 98.294175 11.10264 100.21693 10.972279 101.11328 12.339844 C 101.31824 12.652557 102.38357 11.937131 105.05078 14.519531 C 108.669 18.02242 107.5726 18.859474 107.5957 19.183594 C 107.622 19.552987 107.8702 19.836078 107.92578 20.412109 C 108.03044 21.496561 108.03946 22.746168 107.46875 23.697266 C 106.89804 24.648424 106.8164 25.678759 102.60742 26.722656 C 102.58742 28.16595 102.81957 27.730835 102.60156 28.509766 L 102.60352 28.511719 C 102.32252 29.517437 102.60263 29.652185 101.76562 30.451172 C 100.92862 31.250157 101.08117 31.554925 100.24414 31.783203 C 99.407131 32.011479 99.817859 32.089287 98.792969 32.019531 C 98.370129 31.990761 98.48356 31.904957 97.929688 32.058594 C 97.670451 32.130514 97.111556 32.580078 96.388672 32.580078 C 95.66579 32.580078 95.431164 32.309608 94.974609 32.347656 C 94.518056 32.385696 94.409799 32.434517 94.009766 32.429688 C 92.268049 32.408687 93.091019 31.978479 90.769531 31.896484 C 90.162671 31.875024 90.521735 32.057427 90.769531 32.353516 C 90.92588 32.540339 91.409033 32.43644 91.269531 33.351562 C 91.218081 33.689051 91.810182 33.670593 91.796875 34.142578 C 91.776945 34.849175 91.545498 35.075785 90.65625 35.435547 C 90.338815 35.563964 89.782122 35.131266 89.667969 35.511719 C 89.553827 35.892169 89.820152 37.033203 89.667969 37.033203 C 89.515781 37.033203 88.958218 39.479902 86.265625 39.501953 C 84.948841 39.512693 83.011314 39.440081 80.955078 36.691406 C 79.844455 35.206734 79.19867 35.286271 79.013672 34.865234 C 78.58918 33.899183 78.865809 33.539424 78.929688 33.162109 C 79.000698 32.742719 79.637441 32.694996 79.080078 32.447266 C 78.485733 32.183113 77.637584 31.701284 77.392578 30.232422 C 77.350138 29.977956 77.018553 29.152015 77.041016 27.556641 C 77.047216 27.112983 76.007119 26.883479 77.6875 22.75 C 77.809044 22.451047 77.855003 21.291311 78.349609 20.644531 C 78.844215 19.997751 78.891904 19.540707 78.855469 18.833984 C 78.844289 18.61772 79.563633 17.913391 80.412109 17.160156 C 80.637481 16.960087 81.689656 14.902998 82.976562 14.259766 C 83.110057 14.193046 82.952743 13.398485 83.802734 13.076172 C 84.369007 12.861429 84.730503 12.909691 84.8125 12.697266 C 85.174575 11.759286 86.71446 11.584157 87.15625 11.542969 C 87.752559 11.487369 88.473666 11.520302 88.511719 11.332031 C 88.594959 10.920118 89.627238 10.476333 90.123047 10.439453 C 90.577892 10.405633 90.579555 10.7974 91.117188 10.501953 C 91.308402 10.396876 91.886184 10.195312 92.304688 10.195312 C 92.72319 10.195312 93.280716 10.477577 93.699219 10.515625 C 93.960783 10.539406 94.226413 10.204549 94.794922 10.183594 z "
       transform="matrix(0.15609235,0,0,-0.15606073,-11.27082,0.19957516)" />
  </g>
</svg>
