<?xml version="1.0" encoding="UTF-8" standalone="no"?>
<svg
   xmlns:dc="http://purl.org/dc/elements/1.1/"
   xmlns:cc="http://creativecommons.org/ns#"
   xmlns:rdf="http://www.w3.org/1999/02/22-rdf-syntax-ns#"
   xmlns:svg="http://www.w3.org/2000/svg"
   xmlns="http://www.w3.org/2000/svg"
   xmlns:sodipodi="http://sodipodi.sourceforge.net/DTD/sodipodi-0.dtd"
   xmlns:inkscape="http://www.inkscape.org/namespaces/inkscape"
   height="128"
   width="128"
   version="1.1"
   id="svg905"
   sodipodi:docname="disability_symbols.svg"
   inkscape:version="1.0.2 (e86c8708, 2021-01-15)">
  <metadata
     id="metadata911">
    <rdf:RDF>
      <cc:Work
         rdf:about="">
        <dc:format>image/svg+xml</dc:format>
        <dc:type
           rdf:resource="http://purl.org/dc/dcmitype/StillImage" />
        <dc:title></dc:title>
      </cc:Work>
    </rdf:RDF>
  </metadata>
  <defs
     id="defs909" />
  <sodipodi:namedview
     pagecolor="#ffffff"
     bordercolor="#666666"
     borderopacity="1"
     objecttolerance="10"
     gridtolerance="10"
     guidetolerance="10"
     inkscape:pageopacity="0"
     inkscape:pageshadow="2"
     inkscape:window-width="1440"
     inkscape:window-height="847"
     id="namedview907"
     showgrid="false"
     inkscape:zoom="2.442844"
     inkscape:cx="138.54586"
     inkscape:cy="100.93842"
     inkscape:window-x="0"
     inkscape:window-y="25"
     inkscape:window-maximized="1"
     inkscape:current-layer="svg905" />
  <g
     fill="#ffffff"
     transform="matrix(6.4064607,0,0,-6.4077601,7.5724363,63.366199)"
     id="g835">
    <path
       fill-rule="nonzero"
       fill="#ffffff"
       d="m 0,0 c -0.652,0 -1.182,0.529 -1.182,1.184 v 7.523 c 0,0.652 0.53,1.182 1.182,1.182 h 7.527 c 0.653,0 1.182,-0.53 1.182,-1.182 V 1.184 C 8.709,0.529 8.18,0 7.527,0 Z"
       id="path833" />
  </g>
  <g
     transform="matrix(6.4064607,0,0,-6.4077601,7.5724363,1.2788479)"
     stroke="#000000"
     stroke-dasharray="none"
     stroke-miterlimit="4"
     stroke-width="0.04"
     fill="#003984"
     id="g839"
     style="fill:#1d2445;fill-opacity:1">
    <path
       d="m 0,0 c -0.541,0 -0.982,-0.441 -0.982,-0.982 v -7.524 c 0,-0.541 0.441,-0.982 0.982,-0.982 h 7.527 c 0.541,0 0.981,0.441 0.981,0.982 v 7.524 C 8.508,-0.441 8.068,0 7.527,0 Z"
       fill-rule="nonzero"
       stroke="#000000"
       stroke-miterlimit="4"
       stroke-dasharray="none"
       stroke-width="0.04"
       fill="#003984"
       id="path837"
       style="fill:#1d2445;fill-opacity:1" />
  </g>
  <g
     transform="matrix(6.4064607,0,0,-6.4077601,26.629042,15.408673)"
     stroke="#000000"
     stroke-dasharray="none"
     stroke-miterlimit="4"
     stroke-width="0.04"
     fill="#ffffff"
     id="g843">
    <path
       d="M 0,0 C 0.367,0 0.662,0.299 0.662,0.662 0.662,1.029 0.367,1.324 0,1.324 -0.365,1.324 -0.662,1.029 -0.662,0.662 -0.662,0.299 -0.365,0 0,0"
       fill-rule="nonzero"
       stroke="#000000"
       stroke-miterlimit="4"
       stroke-dasharray="none"
       stroke-width="0.04"
       fill="#ffffff"
       id="path841" />
  </g>
  <g
     transform="matrix(6.4064607,0,0,-6.4077601,47.262361,46.984069)"
     stroke="#000000"
     stroke-dasharray="none"
     stroke-miterlimit="4"
     stroke-width="0.05"
     fill="#ffffff"
     id="g847">
    <path
       d="m 0,0 c 0.105,-0.172 0.348,-0.242 0.531,-0.133 0.182,0.11 0.237,0.338 0.133,0.529 l -1.129,1.95 c -0.07,0.117 -0.193,0.183 -0.32,0.187 h -1.656 l -0.016,0.5 h 1.203 c 0.164,0.01 0.299,0.135 0.299,0.303 0,0.166 -0.131,0.295 -0.299,0.301 H -2.492 L -2.535,4.205 C -2.559,4.553 -2.857,4.826 -3.209,4.807 -3.563,4.787 -3.83,4.482 -3.813,4.131 l 0.116,-2.01 C -3.668,1.77 -3.373,1.518 -3.023,1.52 h 2.146 z"
       fill-rule="nonzero"
       stroke="#000000"
       stroke-miterlimit="4"
       stroke-dasharray="none"
       stroke-width="0.04"
       fill="#ffffff"
       id="path845" />
  </g>
  <g
     transform="matrix(6.4064607,0,0,-6.4077601,29.356864,51.827771)"
     stroke="#000000"
     stroke-dasharray="none"
     stroke-miterlimit="4"
     stroke-width="0.04"
     fill="#ffffff"
     id="g851">
    <path
       d="m 0,0 c -1.086,0 -1.967,0.879 -1.967,1.967 0,0.596 0.27,1.127 0.69,1.488 L -1.313,4.07 C -2.016,3.631 -2.488,2.857 -2.488,1.967 c 0,-1.373 1.113,-2.488 2.488,-2.488 1.012,0 1.877,0.609 2.266,1.476 L 1.916,1.561 C 1.729,0.672 0.945,0 0,0"
       fill-rule="nonzero"
       stroke="#000000"
       stroke-miterlimit="4"
       stroke-dasharray="none"
       stroke-width="0.04"
       fill="#ffffff"
       id="path849" />
  </g>
  <g
     fill="#ffffff"
     transform="matrix(6.406464,0,0,-6.407762,7.5724401,127.99984)"
     id="g855">
    <path
       fill-rule="nonzero"
       fill="#ffffff"
       d="m 0,0 c -0.652,0 -1.182,0.529 -1.182,1.184 v 7.523 c 0,0.652 0.53,1.182 1.182,1.182 h 7.527 c 0.653,0 1.182,-0.53 1.182,-1.182 V 1.184 C 8.709,0.529 8.18,0 7.527,0 Z"
       id="path853" />
  </g>
  <g
     transform="matrix(6.406464,0,0,-6.407762,7.5724401,65.912511)"
     stroke="#000000"
     stroke-dasharray="none"
     stroke-miterlimit="4"
     stroke-width="0.04"
     fill="#003984"
     id="g859"
     style="fill:#1d2445;fill-opacity:1">
    <path
       d="m 0,0 c -0.541,0 -0.982,-0.441 -0.982,-0.982 v -7.524 c 0,-0.541 0.441,-0.982 0.982,-0.982 h 7.527 c 0.541,0 0.981,0.441 0.981,0.982 v 7.524 C 8.508,-0.441 8.068,0 7.527,0 Z"
       fill-rule="nonzero"
       stroke="#000000"
       stroke-miterlimit="4"
       stroke-dasharray="none"
       stroke-width="0.04"
       fill="#003984"
       id="path857"
       style="fill:#1d2445;fill-opacity:1" />
  </g>
  <g
     transform="matrix(6.406464,0,0,-6.407762,34.173968,97.112469)"
     stroke="#000000"
     stroke-dasharray="none"
     stroke-miterlimit="4"
     stroke-width="0.04"
     fill="#ffffff"
     id="g863">
    <path
       d="m 0,0 c 0.154,-0.123 0.232,-0.49 0.23,-0.486 0.284,-0.09 0.463,-0.278 0.463,-0.278 0.436,0.243 0.446,0.133 0.635,0.278 0.156,0.107 0.149,0.14 0.231,0.427 C 1.635,0.174 1.365,0.152 1.143,0.576 0.756,0.43 0.547,0.496 0.416,0.508 0.357,0.516 0.367,0.279 0,0 M 1.408,-2.807 C 1.354,-2.881 1.328,-2.896 1.26,-2.992 1.146,-3.139 1.291,-3.361 1.363,-3.326 c 0.084,0.031 0.139,0.199 0.231,0.254 0.047,0.025 0.172,0.209 0.289,0.334 0.086,0.097 0.148,0.14 0.23,0.242 0.139,0.172 0.168,0.303 0.289,0.486 0.075,0.096 0.127,0.125 0.196,0.242 0.361,0.684 0.256,0.991 0.601,1.479 0.106,0.144 0.225,0.18 0.393,0.266 C 3.748,1.115 3.23,1.752 3.234,1.754 2.799,1.5 2.564,1.396 2.113,1.42 1.943,1.422 1.854,1.494 1.686,1.479 1.529,1.473 1.449,1.414 1.293,1.361 1.053,1.287 0.922,1.221 0.67,1.143 0.51,1.098 0.408,1.096 0.242,1.039 0.1,0.979 0.168,1.027 0.068,0.912 -0.061,0.77 -0.029,0.658 -0.15,0.414 -0.301,0.094 -0.283,0.051 -0.197,0.012 c -0.057,-0.164 -0.071,-0.274 -0.057,-0.451 0.016,-0.135 -0.041,-0.229 0.104,-0.336 0.197,-0.147 0.611,-0.491 0.716,-0.496 0.159,0.005 0.62,-0.012 0.854,0.15 0.053,0.033 0.068,0.066 0.023,-0.059 C 1.434,-1.195 0.859,-1.643 0.797,-1.641 0.066,-1.664 0.311,-1.705 0.266,-1.688 c -0.037,0 -0.389,0.43 -0.602,0.278 -0.08,-0.049 -0.117,-0.096 -0.148,-0.184 0.027,-0.056 0.156,-0.146 0.275,-0.22 0.172,-0.11 0.188,-0.225 0.359,-0.266 0.209,-0.047 0.432,-0.016 0.565,-0.033 0.051,-0.014 0.512,0.121 0.799,0.275 C 1.779,-1.701 1.148,-2.102 0.994,-2.299 0.529,-2.445 0.66,-2.451 0.439,-2.496 0.234,-2.543 0.244,-2.531 0.104,-2.576 -0.041,-2.611 -0.16,-2.809 -0.023,-2.912 c 0.082,-0.068 0.337,0.027 0.589,0.035 0.112,0.002 0.567,0.211 0.67,0.266 0.258,0.138 0.448,0.33 0.6,0.439 0.211,0.147 -0.238,-0.404 -0.428,-0.635"
       fill-rule="evenodd"
       stroke="#000000"
       stroke-miterlimit="4"
       stroke-dasharray="none"
       stroke-width="0.04"
       fill="#ffffff"
       id="path861" />
  </g>
  <g
     transform="matrix(6.406464,0,0,-6.407762,28.693831,95.78606)"
     stroke="#000000"
     stroke-dasharray="none"
     stroke-miterlimit="4"
     stroke-width="0.04"
     fill="#ffffff"
     id="g867">
    <path
       d="M 0,0 C -0.154,0.127 -0.232,0.494 -0.23,0.496 -0.514,0.58 -0.693,0.768 -0.693,0.762 -1.129,0.525 -1.141,0.635 -1.328,0.496 -1.486,0.383 -1.477,0.348 -1.559,0.07 c -0.076,-0.242 0.192,-0.218 0.416,-0.636 0.387,0.14 0.596,0.074 0.727,0.058 C -0.357,-0.512 -0.367,-0.275 0,0 m -1.408,2.807 c 0.054,0.078 0.08,0.093 0.15,0.185 0.11,0.151 -0.033,0.373 -0.103,0.346 C -1.447,3.299 -1.502,3.131 -1.605,3.072 -1.643,3.051 -1.768,2.867 -1.883,2.738 -1.969,2.645 -2.031,2.602 -2.113,2.494 -2.254,2.328 -2.281,2.197 -2.402,2.021 -2.477,1.916 -2.531,1.889 -2.598,1.768 -2.959,1.088 -2.855,0.781 -3.199,0.301 -3.305,0.146 -3.424,0.113 -3.592,0.023 c -0.156,-1.136 0.36,-1.771 0.358,-1.767 0.435,0.248 0.668,0.351 1.121,0.336 0.17,-0.01 0.259,-0.082 0.427,-0.071 0.157,0.01 0.237,0.069 0.393,0.116 0.24,0.08 0.371,0.146 0.611,0.22 0.172,0.049 0.274,0.051 0.44,0.116 0.142,0.052 0.074,0.004 0.174,0.115 0.127,0.146 0.097,0.258 0.207,0.496 0.162,0.326 0.144,0.369 0.058,0.404 C 0.252,0.156 0.268,0.264 0.254,0.439 0.236,0.576 0.295,0.672 0.15,0.773 -0.047,0.926 -0.461,1.27 -0.564,1.271 -0.725,1.27 -1.186,1.287 -1.42,1.133 -1.473,1.092 -1.488,1.059 -1.443,1.178 c 0.009,0.021 0.584,0.468 0.646,0.474 0.731,0.016 0.486,0.057 0.531,0.036 C -0.229,1.691 0.123,1.262 0.336,1.41 0.414,1.463 0.453,1.51 0.486,1.594 0.457,1.654 0.328,1.744 0.209,1.813 0.037,1.928 0.02,2.043 -0.15,2.08 -0.359,2.131 -0.584,2.1 -0.715,2.125 -0.766,2.131 -1.227,1.996 -1.512,1.848 c -0.269,-0.143 0.364,0.257 0.52,0.463 0.463,0.138 0.33,0.144 0.554,0.195 0.204,0.041 0.194,0.029 0.334,0.07 C 0.039,2.615 0.16,2.811 0.023,2.922 -0.061,2.984 -0.314,2.889 -0.564,2.887 -0.678,2.879 -1.133,2.67 -1.236,2.611 -1.494,2.477 -1.684,2.285 -1.836,2.184 -2.049,2.029 -1.598,2.578 -1.408,2.807"
       fill-rule="evenodd"
       stroke="#000000"
       stroke-miterlimit="4"
       stroke-dasharray="none"
       stroke-width="0.04"
       fill="#ffffff"
       id="path865" />
  </g>
  <g
     fill="#ffffff"
     transform="matrix(6.406464,0,0,-6.407762,72.206105,127.99984)"
     id="g871">
    <path
       fill-rule="nonzero"
       fill="#ffffff"
       d="m 0,0 c -0.652,0 -1.182,0.529 -1.182,1.184 v 7.523 c 0,0.652 0.53,1.182 1.182,1.182 h 7.527 c 0.653,0 1.182,-0.53 1.182,-1.182 V 1.184 C 8.709,0.529 8.18,0 7.527,0 Z"
       id="path869" />
  </g>
  <g
     transform="matrix(6.406464,0,0,-6.407762,72.206105,65.912445)"
     stroke="#000000"
     stroke-dasharray="none"
     stroke-miterlimit="4"
     stroke-width="0.04"
     fill="#003984"
     id="g875"
     style="fill:#1d2445;fill-opacity:1">
    <path
       d="m 0,0 c -0.541,0 -0.98,-0.441 -0.98,-0.982 v -7.524 c 0,-0.541 0.439,-0.982 0.98,-0.982 h 7.527 c 0.541,0 0.983,0.441 0.983,0.982 v 7.524 C 8.51,-0.441 8.068,0 7.527,0 Z"
       fill-rule="nonzero"
       stroke="#000000"
       stroke-miterlimit="4"
       stroke-dasharray="none"
       stroke-width="0.04"
       fill="#003984"
       id="path873"
       style="fill:#1d2445;fill-opacity:1" />
  </g>
  <g
     transform="matrix(6.406464,0,0,-6.407762,92.151374,73.001994)"
     stroke="#000000"
     stroke-dasharray="none"
     stroke-miterlimit="4"
     stroke-width="0.04"
     fill="#ffffff"
     id="g879">
    <path
       d="M 0,0 C 0.004,0.358 -0.291,0.655 -0.65,0.651 -1.018,0.655 -1.314,0.358 -1.313,0 -1.314,-0.367 -1.018,-0.661 -0.65,-0.662 -0.291,-0.661 0.004,-0.367 0,0"
       fill-rule="nonzero"
       stroke="#000000"
       stroke-miterlimit="4"
       stroke-dasharray="none"
       stroke-width="0.04"
       fill="#ffffff"
       id="path877" />
  </g>
  <g
     transform="matrix(6.406464,0,0,-6.407762,104.26348,96.055274)"
     stroke="#000000"
     stroke-dasharray="none"
     stroke-miterlimit="4"
     stroke-width="0.04"
     fill="#ffffff"
     id="g883">
    <path
       d="m 0,0 -2.104,2.552 c -0.109,0.162 -0.718,0.23 -0.976,0.023 l -1.024,-1.862 0.252,-1.574 c 0.256,-0.411 0.764,0.005 0.622,0.229 l -0.172,1.115 0.423,0.816 -0.021,-2 -0.92,-2.873 c -0.182,-0.61 0.717,-0.864 0.897,-0.277 l 1.138,3.173 -0.011,1.614 -0.53,0.626 c -0.025,0.03 -0.021,0.076 0.01,0.102 0.031,0.025 0.076,0.022 0.102,-0.009 l 1.75,-2.069 C -0.283,-0.799 0.281,-0.39 0,0"
       fill-rule="nonzero"
       stroke="#000000"
       stroke-miterlimit="4"
       stroke-dasharray="none"
       stroke-width="0.04"
       fill="#ffffff"
       id="path881" />
  </g>
  <g
     transform="matrix(6.406464,0,0,-6.407762,99.10812,118.73873)"
     stroke="#000000"
     stroke-dasharray="none"
     stroke-miterlimit="4"
     stroke-width="0.04"
     fill="#ffffff"
     id="g887">
    <path
       d="M 0,0 -1.033,2.571 -1.455,1.39 -0.852,-0.345 C -0.607,-0.916 0.25,-0.582 0,0"
       fill-rule="nonzero"
       stroke="#000000"
       stroke-miterlimit="4"
       stroke-dasharray="none"
       stroke-width="0.04"
       fill="#ffffff"
       id="path885" />
  </g>
  <g
     transform="matrix(6.406464,0,0,-6.407762,116.66378,122.51862)"
     stroke="#000000"
     stroke-dasharray="none"
     stroke-miterlimit="4"
     stroke-width="0.04"
     fill="#ffffff"
     id="g891">
    <path
       d="M 0,0 C 0.002,-0.002 0.004,-0.005 0.004,-0.006 0.045,-0.055 0.117,-0.06 0.166,-0.02 0.209,0.018 0.217,0.083 0.188,0.13 L -1.76,3.511 C -1.762,3.513 -1.764,3.515 -1.766,3.518 -1.805,3.564 -1.877,3.571 -1.926,3.53 -1.969,3.493 -1.973,3.431 -1.945,3.381 Z"
       fill-rule="nonzero"
       stroke="#000000"
       stroke-miterlimit="4"
       stroke-dasharray="none"
       stroke-width="0.04"
       fill="#ffffff"
       id="path889" />
  </g>
  <g
     fill="#ffffff"
     transform="matrix(6.406464,0,0,-6.407762,72.206105,63.366199)"
     id="g895">
    <path
       fill-rule="nonzero"
       fill="#ffffff"
       d="m 0,0 c -0.652,0 -1.182,0.529 -1.182,1.184 v 7.523 c 0,0.652 0.53,1.182 1.182,1.182 h 7.527 c 0.653,0 1.182,-0.53 1.182,-1.182 V 1.184 C 8.709,0.529 8.18,0 7.527,0 Z"
       id="path893" />
  </g>
  <g
     transform="matrix(6.406464,0,0,-6.407762,72.206105,1.2788301)"
     stroke="#000000"
     stroke-dasharray="none"
     stroke-miterlimit="4"
     stroke-width="0.04"
     fill="#003984"
     id="g899"
     style="fill:#1d2445;fill-opacity:1">
    <path
       d="m 0,0 c -0.541,0 -0.98,-0.441 -0.98,-0.982 v -7.524 c 0,-0.541 0.439,-0.982 0.98,-0.982 h 7.527 c 0.541,0 0.983,0.441 0.983,0.982 v 7.524 C 8.51,-0.441 8.068,0 7.527,0 Z"
       fill-rule="nonzero"
       stroke="#000000"
       stroke-miterlimit="4"
       stroke-dasharray="none"
       stroke-width="0.04"
       fill="#003984"
       id="path897"
       style="fill:#1d2445;fill-opacity:1" />
  </g>
  <path
     style="color:#000000;text-indent:0;text-align:start;text-transform:none;direction:ltr;baseline-shift:baseline;enable-background:accumulate"
     d="m 93.028117,5.425631 c -8.739801,-0.1957702 -14.152237,3.626454 -17.247683,8.0396 -3.095286,4.413146 -3.957227,9.314848 -3.851406,11.663203 0.10384,2.308688 0.388785,8.117541 2.990099,11.594134 3.17814,4.247127 5.613941,6.997542 5.752396,12.386212 0.04943,1.924372 -0.124944,3.315642 -0.306931,4.20784 -0.181984,0.892197 -0.356434,1.247524 -0.356434,1.247524 a 0.63585361,0.63585334 0 1 0 1.1584,0.524736 c 0,0 0.234147,-0.536903 0.435642,-1.524751 0.2015,-0.987882 0.388436,-2.468308 0.336635,-4.485068 -0.148109,-5.7657 -2.849775,-8.898847 -6.000159,-13.108905 -2.203121,-2.944252 -2.640412,-8.629857 -2.742559,-10.900907 -0.08699,-1.934098 0.724088,-6.746926 3.623922,-10.881262 2.899675,-4.134334 7.814335,-7.6825308 16.178059,-7.4949664 8.681822,0.1944743 13.817982,4.0972654 16.871282,8.0595614 1.52663,1.981051 2.52772,3.980037 3.1386,5.524907 0.30545,0.772404 0.50994,1.427834 0.64355,1.910876 0.0668,0.24153 0.11784,0.440997 0.14852,0.584174 0.0307,0.143148 0.0423,0.262941 0.0396,0.217821 0.0103,0.173522 -0.0741,0.669117 -0.19802,1.267326 -0.12391,0.598209 -0.27427,1.327017 -0.30693,2.108893 -0.085,2.036024 1.19588,3.751287 2.38612,5.227722 0.59514,0.738185 1.17827,1.421559 1.60396,2.029686 0.4257,0.608157 0.66785,1.13524 0.68315,1.485147 0.0138,0.315704 -0.058,0.387675 -0.30693,0.554456 -0.24893,0.166783 -0.68898,0.315469 -1.16831,0.465362 -0.47934,0.149877 -0.99289,0.294752 -1.44555,0.633663 -0.45266,0.338912 -0.75992,1.034361 -0.58417,1.722772 0.26312,1.030558 0.46416,1.511096 0.61386,1.792063 0.0472,0.08861 0.058,0.09444 0.0792,0.128711 -0.0245,0.263087 -0.10943,0.362329 -0.26732,0.504966 -0.0852,0.07692 -0.19013,0.154448 -0.31683,0.267326 -0.12671,0.112876 -0.32618,0.290222 -0.37624,0.623778 -0.0289,0.192789 0.0547,0.482408 0.19802,0.633663 0.14334,0.151263 0.26605,0.187333 0.35643,0.217822 0.1321,0.04456 0.18471,0.05733 0.23763,0.06931 -6.4e-4,0.01816 0.002,-0.03332 -0.0198,0.04951 -0.47534,1.818835 -0.5497,2.495936 -0.47525,3.079222 0.0745,0.583256 0.22376,0.861054 0.17822,2.366351 -0.0355,1.172531 -0.45244,1.50834 -1.13863,1.762376 -0.6862,0.254041 -1.66581,0.254517 -2.49505,0.277227 -2.6553,0.07271 -4.18123,0.89711 -4.97046,1.960396 -0.7891,1.063286 -0.80174,2.253179 -0.79207,2.871286 a 0.6337407,0.63374043 0 1 0 1.26732,-0.01981 c -0.009,-0.570835 0.0259,-1.400111 0.54457,-2.09901 0.51869,-0.698898 1.56265,-1.379325 3.98004,-1.445544 0.77675,-0.02126 1.88176,0.02091 2.90098,-0.356434 1.01924,-0.377347 1.92285,-1.342732 1.97031,-2.910891 0.0485,-1.60342 -0.13816,-2.173115 -0.18812,-2.56437 -0.05,-0.391225 -0.0286,-0.817679 0.43564,-2.594058 0.0931,-0.356183 0.10816,-0.712903 -0.0495,-1.019818 -0.0765,-0.148895 -0.18534,-0.261243 -0.29703,-0.346551 0.27041,-0.278251 0.5645,-0.709765 0.59406,-1.316815 0.007,-0.151088 -0.0458,-0.38118 -0.10892,-0.504966 -0.0631,-0.123752 -0.0849,-0.145562 -0.12871,-0.227723 -0.0875,-0.164321 -0.25647,-0.541623 -0.50497,-1.514834 -0.08,-0.313483 -0.0655,-0.265455 0.10892,-0.39604 0.17441,-0.130581 0.59225,-0.286476 1.06931,-0.435644 0.47705,-0.149167 1.01183,-0.300011 1.49506,-0.623778 0.48323,-0.323738 0.90316,-0.935095 0.87129,-1.663365 -0.034,-0.778138 -0.42909,-1.460214 -0.91089,-2.148497 -0.48181,-0.688318 -1.08531,-1.381988 -1.66337,-2.09901 -1.15612,-1.434012 -2.15965,-2.934811 -2.09901,-4.386216 0.0274,-0.656665 0.1552,-1.311841 0.27723,-1.900989 0.12203,-0.589148 0.25835,-1.088665 0.22772,-1.603959 -0.008,-0.141603 -0.0324,-0.233734 -0.0693,-0.405925 -0.0369,-0.172208 -0.0955,-0.390337 -0.16832,-0.653466 -0.14559,-0.526288 -0.36017,-1.222874 -0.68315,-2.039603 -0.64633,-1.644356 -1.69188,-3.7459 -3.30772,-5.842692 C 107.64643,9.775804 102.0797,5.6177072 93.024648,5.4149349 Z"
     stroke="#000000"
     stroke-miterlimit="4"
     stroke-dasharray="none"
     stroke-width="0.253466"
     fill="#fffaff"
     id="path901" />
  <path
     stroke-linejoin="miter"
     d="m 102.60277,28.510928 c -0.281,1.005718 0,1.141385 -0.83701,1.940372 -0.837,0.798985 -0.68483,1.103333 -1.52186,1.331611 -0.83701,0.228276 -0.427,0.306315 -1.45189,0.236559 -0.42284,-0.02877 -0.308,-0.113627 -0.861872,0.04001 -0.259236,0.07192 -0.819264,0.521409 -1.542148,0.521409 -0.722882,0 -0.957465,-0.270466 -1.41402,-0.232418 -0.456553,0.03804 -0.563547,0.08605 -0.96358,0.08122 -1.741717,-0.021 -0.918431,-0.450662 -3.239919,-0.532657 -0.60686,-0.02146 -0.247796,0.160466 0,0.456555 0.156349,0.186823 0.639239,0.08334 0.499737,0.998462 -0.05145,0.337489 0.540833,0.317718 0.527526,0.789703 -0.01993,0.706597 -0.252138,0.933829 -1.141386,1.293591 -0.317435,0.128417 -0.875059,-0.304373 -0.989212,0.07608 -0.114142,0.38045 0.152183,1.521868 0,1.521868 -0.152188,0 -0.709229,2.445845 -3.401822,2.467896 -1.316784,0.01074 -3.254813,-0.06162 -5.311049,-2.810295 -1.110623,-1.484672 -1.755375,-1.405181 -1.940373,-1.826218 -0.424492,-0.966051 -0.148249,-1.324513 -0.08437,-1.701828 0.07101,-0.41939 0.70758,-0.467866 0.150217,-0.715596 -0.594345,-0.264153 -1.44244,-0.745917 -1.687446,-2.214779 -0.04244,-0.254466 -0.374146,-1.080301 -0.351683,-2.675675 0.0062,-0.443658 -1.032619,-0.672855 0.647762,-4.806334 0.121544,-0.298953 0.16678,-1.459389 0.661386,-2.106169 0.494606,-0.64678 0.541275,-1.102955 0.50484,-1.809678 -0.01118,-0.216264 0.709259,-0.921791 1.557735,-1.675026 0.225372,-0.200069 1.276577,-2.256568 2.563484,-2.8998 0.133495,-0.06672 -0.02344,-0.862035 0.826551,-1.184348 0.566273,-0.214743 0.928887,-0.166062 1.010884,-0.378487 0.362075,-0.93798 1.900736,-1.1136 2.342526,-1.154788 0.596309,-0.0556 1.317227,-0.02246 1.35528,-0.210731 0.08324,-0.411913 1.116514,-0.85573 1.612323,-0.89261 0.454845,-0.03382 0.4557,0.358337 0.993332,0.06289 0.191214,-0.105077 0.769996,-0.305559 1.188499,-0.305559 0.418502,0 0.976,0.280716 1.394503,0.318764 0.418502,0.03805 0.845528,-0.840047 2.511049,0.114139 0.113951,0.06528 0.680904,-0.684704 1.836486,0.269481 0.2473,0.204202 2.16906,0.07405 3.06541,1.441615 0.20496,0.312713 1.271,-0.403517 3.93821,2.178883 3.61822,3.502889 2.52189,4.339957 2.54499,4.664077 0.0263,0.369393 0.2744,0.653464 0.32998,1.229495 0.10466,1.084452 0.11336,2.334447 -0.45735,3.285545 -0.57071,0.951158 -0.65153,1.980006 -4.86051,3.023903 -0.02,1.443294 0.21201,1.009741 -0.006,1.788672 z"
     stroke="#000000"
     stroke-linecap="butt"
     stroke-miterlimit="4"
     stroke-dasharray="none"
     stroke-width="0.253466"
     fill="#ffffff"
     id="path903" />
</svg>
