<svg width="80" height="56" viewBox="0 0 80 56" fill="none" xmlns="http://www.w3.org/2000/svg">
<g clip-path="url(#clip0_22_889)">
<path d="M45.2811 53.0289H42.8034H38.0073V34.5972C38.0073 34.3416 37.9157 34.0877 37.729 33.9112C37.4117 33.6102 36.9416 33.5749 36.5886 33.7985L24.4849 41.4893C24.3508 41.5751 24.1777 41.5751 24.0436 41.4893L11.9399 33.7985C11.5886 33.5749 11.1185 33.6102 10.7994 33.9112C10.6128 34.0877 10.5211 34.3416 10.5211 34.5972V53.0289H3.24735V19.7133C3.24735 19.7133 20.439 30.5988 23.7263 32.6215C24.0572 32.825 24.473 32.825 24.8039 32.6215C27.8383 30.7552 42.71 21.3409 44.9807 19.9033C44.996 19.8882 45.0096 19.873 45.0249 19.8596L47.0902 18.5212C47.0308 18.2421 46.8934 17.9848 46.6744 17.7948C46.2162 17.398 45.5662 17.3627 45.0758 17.6737L24.4849 30.7585C24.3508 30.8443 24.1777 30.8443 24.0436 30.7585L3.4527 17.6754C2.96223 17.3627 2.31225 17.3997 1.85403 17.7965C1.55534 18.0554 1.4043 18.4421 1.4043 18.8339V53.9419C1.4043 54.4463 1.81669 54.8549 2.32582 54.8549H11.4426C11.9518 54.8549 12.3642 54.4463 12.3642 53.9419V36.2366C12.3642 36.2366 21.4148 41.9517 23.7313 43.3624C24.0589 43.5625 24.4713 43.5625 24.7988 43.3624C27.1154 41.9534 36.166 36.2366 36.166 36.2366V53.9436C36.166 54.448 36.5784 54.8566 37.0875 54.8566H46.2043C46.7135 54.8566 47.1259 54.448 47.1259 53.9436V53.0306H45.2811V53.0289Z" fill="white"/>
<path d="M73.8161 3.06387C73.514 2.84696 73.1084 2.83351 72.7928 3.02856L65.3425 7.61714L60.1901 0.489619C60.0187 0.25254 59.7421 0.111301 59.4468 0.109619C59.1769 0.111301 58.8731 0.247495 58.7 0.484575L53.4781 7.58688L46.0855 3.02856C45.7647 2.83183 45.354 2.84696 45.052 3.07059C44.7482 3.29422 44.6141 3.67758 44.7125 4.03909L47.2599 13.3777C47.3702 13.7846 47.7419 14.0519 48.1475 14.0519C48.2272 14.0519 48.307 14.0418 48.3885 14.02C48.8789 13.8888 49.1691 13.3878 49.0368 12.9035L47.0987 5.79785L53.2337 9.58103C53.2506 9.59112 53.2693 9.59785 53.288 9.60794C53.3151 9.62307 53.3423 9.63652 53.3711 9.64829C53.4 9.66006 53.4271 9.66847 53.456 9.67688C53.4848 9.68528 53.5137 9.69369 53.5426 9.69873C53.5714 9.70378 53.6003 9.70714 53.6291 9.7105C53.6597 9.71387 53.6885 9.71555 53.7191 9.71555C53.7479 9.71555 53.7751 9.71387 53.8039 9.7105C53.8345 9.70714 53.865 9.70378 53.8955 9.69873C53.9227 9.69369 53.9482 9.68528 53.9753 9.67856C54.0059 9.67015 54.0347 9.66006 54.0653 9.64829C54.0907 9.6382 54.1145 9.62643 54.1399 9.61298C54.1671 9.59953 54.1959 9.5844 54.2214 9.56758C54.2451 9.55245 54.2672 9.53396 54.291 9.51714C54.3147 9.49865 54.3385 9.47847 54.3606 9.45661C54.3826 9.43643 54.4013 9.41289 54.4216 9.38935C54.4352 9.37422 54.4505 9.36077 54.4624 9.34396L59.4383 2.57626L64.3531 9.37086C64.3616 9.38431 64.3751 9.39272 64.3836 9.40449C64.4125 9.44148 64.4447 9.47511 64.4787 9.50705C64.4973 9.52387 64.5143 9.539 64.533 9.55413C64.5686 9.58272 64.6076 9.60626 64.6467 9.6298C64.6653 9.63988 64.684 9.65165 64.7027 9.66174C64.7587 9.68865 64.8181 9.7105 64.8775 9.72396C64.8809 9.72564 64.8843 9.72732 64.8877 9.72732C64.9522 9.74245 65.0183 9.74918 65.0845 9.74918C65.0896 9.74918 65.0947 9.75086 65.0998 9.75086C65.1083 9.75086 65.1185 9.74749 65.127 9.74749C65.1999 9.74581 65.2729 9.73404 65.3442 9.71387C65.3595 9.7105 65.3747 9.70714 65.3883 9.7021C65.4545 9.68024 65.5207 9.65165 65.5835 9.61298L71.861 5.74573L70.1198 12.9271C70.001 13.4163 70.3048 13.9073 70.7987 14.025C70.8716 14.0418 70.9429 14.0502 71.0142 14.0502C71.43 14.0502 71.8067 13.7694 71.9069 13.3525L74.1708 4.01387C74.259 3.65573 74.1199 3.27909 73.8161 3.06387Z" fill="white"/>
<path d="M78.4985 41.0219C78.3865 40.8033 78.1913 40.6385 77.9571 40.5628L69.6515 37.9415C69.1729 37.7902 68.6655 38.0458 68.5026 38.5149C67.189 42.3132 64.1495 44.4049 59.9458 44.4049C59.8287 44.4049 59.7184 44.4284 59.6148 44.4688C54.7408 44.2939 50.8256 40.3224 50.8256 35.4513C50.8256 30.4693 54.9156 26.4171 59.9441 26.4171C59.9475 26.4171 59.9509 26.4154 59.956 26.4154C64.0171 26.4188 66.9175 28.312 68.3481 31.8918C68.5314 32.3508 69.0507 32.5812 69.5191 32.4113L77.694 29.4386C77.9265 29.3545 78.1149 29.1797 78.2168 28.956C78.3186 28.7324 78.3237 28.4768 78.232 28.2481C75.2434 20.7625 68.0664 15.925 59.9441 15.925C49.1013 15.925 40.2798 24.665 40.2798 35.4076C40.2798 46.1502 49.1013 54.8902 59.9441 54.8902C68.3464 54.8902 75.8204 49.5988 78.5443 41.7247C78.6275 41.4943 78.6088 41.2404 78.4985 41.0219ZM59.9458 53.0692C50.1162 53.0692 42.1194 45.1464 42.1194 35.4076C42.1194 25.6689 50.1162 17.7477 59.9458 17.7477C66.9921 17.7477 73.2544 21.7646 76.1531 28.0581L69.699 30.4054C67.8763 26.6474 64.4448 24.5911 59.9458 24.5911C59.9356 24.5911 59.9254 24.5944 59.9152 24.5944C53.8871 24.6112 48.9876 29.4739 48.9876 35.4497C48.9876 41.4355 53.9041 46.3066 59.9458 46.3066C60.0883 46.3066 60.2207 46.2712 60.3412 46.2141C64.8097 46.088 68.2463 43.8332 69.9196 39.9374L76.4789 42.0089C73.7771 48.6622 67.2484 53.0692 59.9458 53.0692Z" fill="white"/>
</g>
<defs>
<clipPath id="clip0_22_889">
<rect width="79.1916" height="55.7805" fill="white" transform="translate(0.404297 0.109619)"/>
</clipPath>
</defs>
</svg>
