<svg width="78" height="55" viewBox="0 0 78 55" fill="none" xmlns="http://www.w3.org/2000/svg">
<path d="M44.2811 53.0289H41.8034H37.0073V34.5972C37.0073 34.3416 36.9157 34.0877 36.729 33.9112C36.4117 33.6102 35.9416 33.5749 35.5886 33.7985L23.4849 41.4893C23.3508 41.5751 23.1777 41.5751 23.0436 41.4893L10.9399 33.7985C10.5886 33.5749 10.1185 33.6102 9.79944 33.9112C9.61276 34.0877 9.52112 34.3416 9.52112 34.5972V53.0289H2.24735V19.7133C2.24735 19.7133 19.439 30.5988 22.7263 32.6215C23.0572 32.825 23.473 32.825 23.8039 32.6215C26.8383 30.7552 41.71 21.3409 43.9807 19.9033C43.996 19.8882 44.0096 19.873 44.0249 19.8596L46.0902 18.5212C46.0308 18.2421 45.8934 17.9848 45.6744 17.7948C45.2162 17.398 44.5662 17.3627 44.0758 17.6737L23.4849 30.7585C23.3508 30.8443 23.1777 30.8443 23.0436 30.7585L2.4527 17.6754C1.96223 17.3627 1.31225 17.3997 0.854028 17.7965C0.555339 18.0554 0.404297 18.4421 0.404297 18.8339V53.9419C0.404297 54.4463 0.816692 54.8549 1.32582 54.8549H10.4426C10.9518 54.8549 11.3642 54.4463 11.3642 53.9419V36.2366C11.3642 36.2366 20.4148 41.9517 22.7313 43.3624C23.0589 43.5625 23.4713 43.5625 23.7988 43.3624C26.1154 41.9534 35.166 36.2366 35.166 36.2366V53.9436C35.166 54.448 35.5784 54.8566 36.0875 54.8566H45.2043C45.7135 54.8566 46.1259 54.448 46.1259 53.9436V53.0306H44.2811V53.0289Z" fill="#C48E45"/>
<path d="M72.8161 3.06387C72.514 2.84696 72.1084 2.83351 71.7928 3.02856L64.3425 7.61714L59.1901 0.489619C59.0187 0.25254 58.7421 0.111301 58.4468 0.109619C58.1769 0.111301 57.8731 0.247495 57.7 0.484575L52.4781 7.58688L45.0855 3.02856C44.7647 2.83183 44.354 2.84696 44.052 3.07059C43.7482 3.29422 43.6141 3.67758 43.7125 4.03909L46.2599 13.3777C46.3702 13.7846 46.7419 14.0519 47.1475 14.0519C47.2272 14.0519 47.307 14.0418 47.3885 14.02C47.8789 13.8888 48.1691 13.3878 48.0368 12.9035L46.0987 5.79785L52.2337 9.58103C52.2506 9.59112 52.2693 9.59785 52.288 9.60794C52.3151 9.62307 52.3423 9.63652 52.3711 9.64829C52.4 9.66006 52.4271 9.66847 52.456 9.67688C52.4848 9.68528 52.5137 9.69369 52.5426 9.69873C52.5714 9.70378 52.6003 9.70714 52.6291 9.7105C52.6597 9.71387 52.6885 9.71555 52.7191 9.71555C52.7479 9.71555 52.7751 9.71387 52.8039 9.7105C52.8345 9.70714 52.865 9.70378 52.8955 9.69873C52.9227 9.69369 52.9482 9.68528 52.9753 9.67856C53.0059 9.67015 53.0347 9.66006 53.0653 9.64829C53.0907 9.6382 53.1145 9.62643 53.1399 9.61298C53.1671 9.59953 53.1959 9.5844 53.2214 9.56758C53.2451 9.55245 53.2672 9.53396 53.291 9.51714C53.3147 9.49865 53.3385 9.47847 53.3606 9.45661C53.3826 9.43643 53.4013 9.41289 53.4216 9.38935C53.4352 9.37422 53.4505 9.36077 53.4624 9.34396L58.4383 2.57626L63.3531 9.37086C63.3616 9.38431 63.3751 9.39272 63.3836 9.40449C63.4125 9.44148 63.4447 9.47511 63.4787 9.50705C63.4973 9.52387 63.5143 9.539 63.533 9.55413C63.5686 9.58272 63.6076 9.60626 63.6467 9.6298C63.6653 9.63988 63.684 9.65165 63.7027 9.66174C63.7587 9.68865 63.8181 9.7105 63.8775 9.72396C63.8809 9.72564 63.8843 9.72732 63.8877 9.72732C63.9522 9.74245 64.0183 9.74918 64.0845 9.74918C64.0896 9.74918 64.0947 9.75086 64.0998 9.75086C64.1083 9.75086 64.1185 9.74749 64.127 9.74749C64.1999 9.74581 64.2729 9.73404 64.3442 9.71387C64.3595 9.7105 64.3747 9.70714 64.3883 9.7021C64.4545 9.68024 64.5207 9.65165 64.5835 9.61298L70.861 5.74573L69.1198 12.9271C69.001 13.4163 69.3048 13.9073 69.7987 14.025C69.8716 14.0418 69.9429 14.0502 70.0142 14.0502C70.43 14.0502 70.8067 13.7694 70.9069 13.3525L73.1708 4.01387C73.259 3.65573 73.1199 3.27909 72.8161 3.06387Z" fill="#C48E45"/>
<path d="M77.4985 41.0219C77.3865 40.8033 77.1913 40.6385 76.9571 40.5628L68.6515 37.9415C68.1729 37.7902 67.6655 38.0458 67.5026 38.5149C66.189 42.3132 63.1495 44.4049 58.9458 44.4049C58.8287 44.4049 58.7184 44.4284 58.6148 44.4688C53.7408 44.2939 49.8256 40.3224 49.8256 35.4513C49.8256 30.4693 53.9156 26.4171 58.9441 26.4171C58.9475 26.4171 58.9509 26.4154 58.956 26.4154C63.0171 26.4188 65.9175 28.312 67.3481 31.8918C67.5314 32.3508 68.0507 32.5812 68.5191 32.4113L76.694 29.4386C76.9265 29.3545 77.1149 29.1797 77.2168 28.956C77.3186 28.7324 77.3237 28.4768 77.232 28.2481C74.2434 20.7625 67.0664 15.925 58.9441 15.925C48.1013 15.925 39.2798 24.665 39.2798 35.4076C39.2798 46.1502 48.1013 54.8902 58.9441 54.8902C67.3464 54.8902 74.8204 49.5988 77.5443 41.7247C77.6275 41.4943 77.6088 41.2404 77.4985 41.0219ZM58.9458 53.0692C49.1162 53.0692 41.1194 45.1464 41.1194 35.4076C41.1194 25.6689 49.1162 17.7477 58.9458 17.7477C65.9921 17.7477 72.2544 21.7646 75.1531 28.0581L68.699 30.4054C66.8763 26.6474 63.4448 24.5911 58.9458 24.5911C58.9356 24.5911 58.9254 24.5944 58.9152 24.5944C52.8871 24.6112 47.9876 29.4739 47.9876 35.4497C47.9876 41.4355 52.9041 46.3066 58.9458 46.3066C59.0883 46.3066 59.2207 46.2712 59.3412 46.2141C63.8097 46.088 67.2463 43.8332 68.9196 39.9374L75.4789 42.0089C72.7771 48.6622 66.2484 53.0692 58.9458 53.0692Z" fill="#C48E45"/>
</svg>
