<svg width="338" height="164" viewBox="0 0 338 164" fill="none" xmlns="http://www.w3.org/2000/svg">
<path d="M0.303622 135.034C0.10284 134.833 0 134.573 0 134.26V103.726C0 103.383 0.10284 103.109 0.303622 102.908C0.504404 102.708 0.763952 102.605 1.07737 102.605H3.4133C3.91281 102.605 4.31437 102.854 4.62779 103.354L14.4955 122.242L24.4563 103.354C24.5199 103.168 24.6522 102.997 24.8529 102.84C25.0537 102.683 25.3133 102.605 25.6267 102.605H27.9185C28.2613 102.605 28.5356 102.708 28.7364 102.908C28.9371 103.109 29.04 103.383 29.04 103.726V134.26C29.04 134.573 28.9323 134.828 28.7119 135.034C28.4915 135.234 28.2271 135.337 27.9185 135.337H25.6267C25.3133 135.337 25.0586 135.234 24.8529 135.034C24.6522 134.833 24.5493 134.573 24.5493 134.26V111.253L16.7384 126.498C16.425 127.154 15.9255 127.482 15.2399 127.482H13.7903C13.1047 127.482 12.6052 127.154 12.2918 126.498L4.4368 111.253V134.26C4.4368 134.573 4.33396 134.828 4.13318 135.034C3.9324 135.234 3.67285 135.337 3.35943 135.337H1.07737C0.763952 135.337 0.504404 135.234 0.303622 135.034Z" fill="white"/>
<path d="M35.7686 135.053C35.5825 134.867 35.4895 134.647 35.4895 134.397C35.4895 134.147 35.5042 133.976 35.5385 133.883L47.1349 103.628C47.3846 102.943 47.8841 102.6 48.6334 102.6H51.8116C52.5609 102.6 53.0555 102.943 53.3102 103.628L64.8576 133.883L64.9506 134.397C64.9506 134.647 64.8576 134.862 64.6715 135.053C64.4854 135.239 64.265 135.332 64.0153 135.332H61.6304C61.2876 135.332 61.0231 135.249 60.837 135.078C60.651 134.906 60.5236 134.725 60.4649 134.539L57.8939 127.898H42.5463L39.9753 134.539C39.9116 134.725 39.7794 134.906 39.5786 135.078C39.3778 135.249 39.1183 135.332 38.8049 135.332H36.42C36.1751 135.337 35.9547 135.244 35.7686 135.053ZM56.5276 123.878L50.2152 107.282L43.9028 123.878H56.5276Z" fill="white"/>
<path d="M74.789 134.588C72.9036 133.775 71.459 132.707 70.4649 131.385C69.4658 130.063 68.937 128.633 68.8733 127.105C68.8733 126.855 68.9761 126.63 69.1769 126.429C69.3777 126.229 69.6226 126.126 69.9017 126.126H72.2866C72.8791 126.126 73.2856 126.439 73.5011 127.061C73.7802 128.369 74.5833 129.49 75.9105 130.425C77.2327 131.361 79.0985 131.826 81.4981 131.826C84.0838 131.826 86.0328 131.366 87.3404 130.445C88.6479 129.524 89.3041 128.241 89.3041 126.586C89.3041 125.528 88.9858 124.671 88.3443 124.015C87.7077 123.359 86.7625 122.786 85.5137 122.286C84.265 121.787 82.3943 121.165 79.9016 120.416C77.4727 119.73 75.5383 118.995 74.1034 118.217C72.6686 117.438 71.5961 116.473 70.8762 115.318C70.1612 114.167 69.7988 112.717 69.7988 110.969C69.7988 109.284 70.2592 107.776 71.1798 106.434C72.1005 105.093 73.4178 104.045 75.1318 103.281C76.8458 102.517 78.8879 102.135 81.2581 102.135C83.6871 102.135 85.7782 102.566 87.5216 103.418C89.2649 104.275 90.5921 105.357 91.498 106.669C92.3991 107.977 92.8839 109.289 92.9476 110.597C92.9476 110.847 92.8594 111.062 92.688 111.253C92.5166 111.439 92.2767 111.532 91.9633 111.532H89.4853C88.8291 111.532 88.4275 111.238 88.2708 110.646C88.0847 109.338 87.3502 108.256 86.072 107.394C84.7939 106.537 83.1876 106.111 81.2581 106.111C79.1377 106.111 77.4727 106.518 76.2533 107.326C75.0388 108.139 74.4315 109.333 74.4315 110.925C74.4315 111.988 74.7205 112.859 75.2983 113.545C75.8762 114.231 76.7528 114.833 77.9379 115.347C79.123 115.861 80.8517 116.444 83.1288 117.1C85.7782 117.815 87.8644 118.56 89.3923 119.324C90.9202 120.088 92.0563 121.038 92.8056 122.174C93.5548 123.31 93.927 124.754 93.927 126.498C93.927 129.397 92.8056 131.674 90.5578 133.324C88.3149 134.975 85.2885 135.802 81.4883 135.802C78.9075 135.802 76.6744 135.396 74.789 134.588Z" fill="white"/>
<path d="M108.638 135.034C108.437 134.833 108.334 134.573 108.334 134.26V106.767H99.3579C99.0445 106.767 98.7898 106.664 98.5841 106.464C98.3834 106.263 98.2805 106.003 98.2805 105.69V103.726C98.2805 103.418 98.3834 103.148 98.5841 102.933C98.7849 102.717 99.0445 102.605 99.3579 102.605H121.894C122.237 102.605 122.512 102.708 122.712 102.908C122.913 103.109 123.016 103.383 123.016 103.726V105.69C123.016 106.003 122.908 106.258 122.688 106.464C122.467 106.664 122.203 106.767 121.894 106.767H112.962V134.26C112.962 134.573 112.854 134.828 112.634 135.034C112.414 135.234 112.149 135.337 111.841 135.337H109.407C109.098 135.337 108.844 135.234 108.638 135.034Z" fill="white"/>
<path d="M130.053 135.034C129.852 134.833 129.75 134.573 129.75 134.26V103.726C129.75 103.383 129.852 103.109 130.053 102.908C130.254 102.708 130.513 102.605 130.827 102.605H150.136C150.445 102.605 150.704 102.708 150.91 102.908C151.111 103.109 151.214 103.383 151.214 103.726V105.504C151.214 105.817 151.121 106.072 150.934 106.278C150.748 106.478 150.484 106.581 150.141 106.581H134.245V116.821H149.113C149.426 116.821 149.681 116.924 149.887 117.125C150.087 117.326 150.19 117.6 150.19 117.943V119.671C150.19 119.985 150.087 120.239 149.887 120.445C149.686 120.646 149.426 120.749 149.113 120.749H134.245V131.361H150.518C150.861 131.361 151.125 131.454 151.312 131.64C151.498 131.826 151.591 132.09 151.591 132.433V134.255C151.591 134.568 151.488 134.823 151.287 135.029C151.086 135.229 150.827 135.332 150.513 135.332H130.827C130.513 135.337 130.254 135.234 130.053 135.034Z" fill="white"/>
<path d="M159.886 135.034C159.686 134.833 159.583 134.573 159.583 134.26V103.726C159.583 103.383 159.686 103.109 159.886 102.908C160.087 102.708 160.347 102.605 160.66 102.605H172.07C175.655 102.605 178.461 103.447 180.489 105.132C182.516 106.816 183.53 109.245 183.53 112.423C183.53 114.794 182.947 116.743 181.777 118.266C180.606 119.794 178.961 120.851 176.845 121.444L184.044 133.883C184.137 134.069 184.186 134.24 184.186 134.397C184.186 134.647 184.083 134.862 183.882 135.053C183.682 135.239 183.451 135.332 183.207 135.332H180.949C180.479 135.332 180.116 135.225 179.852 135.004C179.588 134.789 179.343 134.475 179.127 134.069L172.35 122.193H164.166V134.255C164.166 134.568 164.059 134.823 163.838 135.029C163.618 135.229 163.354 135.332 163.045 135.332H160.66C160.342 135.337 160.087 135.234 159.886 135.034ZM171.879 118.222C176.522 118.222 178.848 116.273 178.848 112.379C178.848 108.481 176.527 106.537 171.879 106.537H164.166V118.227H171.879V118.222Z" fill="white"/>
<path d="M193.921 132.438C191.757 130.195 190.591 127.09 190.44 123.134C190.41 122.291 190.391 120.92 190.391 119.02C190.391 117.086 190.405 115.685 190.44 114.813C190.596 110.886 191.762 107.791 193.946 105.533C196.13 103.271 199.294 102.144 203.437 102.144C206.208 102.144 208.564 102.634 210.498 103.619C212.433 104.598 213.897 105.886 214.896 107.477C215.895 109.069 216.438 110.768 216.532 112.575V112.668C216.532 112.918 216.429 113.129 216.228 113.3C216.027 113.472 215.797 113.555 215.552 113.555H212.981C212.359 113.555 211.967 113.197 211.811 112.477C211.282 110.141 210.332 108.496 208.961 107.546C207.589 106.596 205.748 106.121 203.441 106.121C198.079 106.121 195.307 109.098 195.121 115.053C195.092 115.896 195.072 117.188 195.072 118.937C195.072 120.68 195.087 122.007 195.121 122.913C195.307 128.868 198.084 131.846 203.441 131.846C205.748 131.846 207.594 131.371 208.98 130.421C210.366 129.47 211.311 127.825 211.811 125.489C211.904 125.083 212.046 124.803 212.232 124.647C212.418 124.49 212.668 124.412 212.981 124.412H215.552C215.831 124.412 216.076 124.5 216.277 124.666C216.478 124.838 216.566 125.063 216.532 125.342C216.438 127.184 215.895 128.897 214.896 130.484C213.897 132.076 212.433 133.359 210.498 134.343C208.564 135.327 206.213 135.817 203.437 135.817C199.259 135.802 196.091 134.681 193.921 132.438Z" fill="white"/>
<path d="M224.597 135.034C224.396 134.833 224.293 134.573 224.293 134.26V103.682C224.293 103.374 224.396 103.114 224.597 102.908C224.798 102.708 225.057 102.605 225.371 102.605H227.849C228.157 102.605 228.417 102.708 228.623 102.908C228.823 103.109 228.926 103.369 228.926 103.682V131.268H244.45C244.793 131.268 245.067 131.37 245.268 131.571C245.469 131.772 245.571 132.046 245.571 132.389V134.26C245.571 134.573 245.464 134.828 245.243 135.034C245.023 135.234 244.759 135.337 244.45 135.337H225.366C225.057 135.337 224.798 135.234 224.597 135.034Z" fill="white"/>
<path d="M249.259 135.053C249.073 134.867 248.98 134.647 248.98 134.397C248.98 134.147 248.995 133.976 249.029 133.883L260.625 103.628C260.875 102.943 261.375 102.6 262.124 102.6H265.302C266.051 102.6 266.546 102.943 266.801 103.628L278.348 133.883L278.441 134.397C278.441 134.647 278.348 134.862 278.162 135.053C277.976 135.239 277.756 135.332 277.506 135.332H275.121C274.778 135.332 274.514 135.249 274.328 135.078C274.141 134.906 274.014 134.725 273.955 134.539L271.384 127.898H256.047L253.476 134.539C253.412 134.725 253.28 134.906 253.079 135.078C252.878 135.249 252.619 135.332 252.305 135.332H249.92C249.666 135.337 249.445 135.244 249.259 135.053ZM270.018 123.878L263.706 107.282L257.393 123.878H270.018Z" fill="white"/>
<path d="M288.279 134.588C286.394 133.775 284.949 132.707 283.955 131.385C282.956 130.063 282.427 128.633 282.369 127.105C282.369 126.855 282.471 126.63 282.672 126.429C282.873 126.229 283.118 126.126 283.397 126.126H285.782C286.375 126.126 286.781 126.439 286.996 127.061C287.276 128.369 288.079 129.49 289.406 130.425C290.728 131.361 292.594 131.826 294.993 131.826C297.579 131.826 299.528 131.366 300.836 130.445C302.143 129.524 302.799 128.241 302.799 126.586C302.799 125.528 302.481 124.671 301.84 124.015C301.203 123.359 300.258 122.786 299.009 122.286C297.76 121.787 295.89 121.165 293.397 120.416C290.968 119.73 289.034 118.995 287.599 118.217C286.164 117.438 285.091 116.473 284.372 115.318C283.657 114.167 283.294 112.717 283.294 110.969C283.294 109.284 283.755 107.776 284.675 106.434C285.596 105.093 286.913 104.045 288.627 103.281C290.341 102.517 292.383 102.135 294.754 102.135C297.182 102.135 299.274 102.566 301.017 103.418C302.76 104.275 304.087 105.357 304.993 106.669C305.894 107.977 306.379 109.289 306.443 110.597C306.443 110.847 306.355 111.062 306.183 111.253C306.012 111.439 305.772 111.532 305.459 111.532H302.981C302.324 111.532 301.923 111.238 301.766 110.646C301.58 109.338 300.846 108.256 299.567 107.394C298.289 106.537 296.683 106.111 294.754 106.111C292.633 106.111 290.968 106.518 289.749 107.326C288.534 108.139 287.927 109.333 287.927 110.925C287.927 111.988 288.216 112.859 288.794 113.545C289.372 114.231 290.248 114.833 291.433 115.347C292.618 115.861 294.347 116.444 296.624 117.1C299.274 117.815 301.36 118.56 302.888 119.324C304.416 120.088 305.552 121.038 306.301 122.174C307.05 123.31 307.422 124.754 307.422 126.498C307.422 129.397 306.301 131.674 304.053 133.324C301.81 134.975 298.784 135.802 294.984 135.802C292.398 135.802 290.165 135.396 288.279 134.588Z" fill="white"/>
<path d="M318.857 134.588C316.972 133.775 315.527 132.707 314.533 131.385C313.534 130.063 313.005 128.633 312.946 127.105C312.946 126.855 313.049 126.63 313.25 126.429C313.451 126.229 313.696 126.126 313.975 126.126H316.36C316.952 126.126 317.359 126.439 317.574 127.061C317.853 128.369 318.656 129.49 319.983 130.425C321.306 131.361 323.172 131.826 325.571 131.826C328.157 131.826 330.106 131.366 331.413 130.445C332.721 129.524 333.377 128.241 333.377 126.586C333.377 125.528 333.059 124.671 332.417 124.015C331.781 123.359 330.836 122.786 329.587 122.286C328.338 121.787 326.467 121.165 323.975 120.416C321.546 119.73 319.611 118.995 318.176 118.217C316.742 117.438 315.669 116.473 314.949 115.318C314.234 114.167 313.872 112.717 313.872 110.969C313.872 109.284 314.332 107.776 315.253 106.434C316.174 105.093 317.491 104.045 319.205 103.281C320.919 102.517 322.961 102.135 325.331 102.135C327.76 102.135 329.851 102.566 331.595 103.418C333.338 104.275 334.665 105.357 335.571 106.669C336.472 107.977 336.957 109.289 337.021 110.597C337.021 110.847 336.932 111.062 336.761 111.253C336.59 111.439 336.35 111.532 336.036 111.532H333.558C332.902 111.532 332.501 111.238 332.344 110.646C332.158 109.338 331.423 108.256 330.145 107.394C328.867 106.537 327.261 106.111 325.331 106.111C323.211 106.111 321.546 106.518 320.326 107.326C319.112 108.139 318.505 109.333 318.505 110.925C318.505 111.988 318.793 112.859 319.371 113.545C319.949 114.231 320.826 114.833 322.011 115.347C323.196 115.861 324.925 116.444 327.202 117.1C329.851 117.815 331.937 118.56 333.465 119.324C334.993 120.088 336.129 121.038 336.879 122.174C337.628 123.31 338 124.754 338 126.498C338 129.397 336.879 131.674 334.631 133.324C332.388 134.975 329.361 135.802 325.561 135.802C322.981 135.802 320.743 135.396 318.857 134.588Z" fill="white"/>
<path d="M62.5658 75.2102H59.1134H52.4337V49.3044C52.4337 48.9469 52.3064 48.5894 52.0468 48.3397C51.6061 47.9185 50.9498 47.8646 50.4601 48.183L33.6042 58.9909C33.4181 59.1134 33.1782 59.1134 32.9872 58.9909L16.1312 48.183C15.6415 47.8695 14.9853 47.9185 14.5446 48.3397C14.285 48.5894 14.1577 48.9469 14.1577 49.3044V75.2102H4.03534V28.3839C4.03534 28.3839 27.9725 43.6825 32.5513 46.5277C33.0117 46.8118 33.5895 46.8118 34.0499 46.5277C38.2761 43.9029 58.9811 30.6757 62.1447 28.6532C62.1643 28.6336 62.1839 28.6091 62.2084 28.5895L65.083 26.709C64.9997 26.3173 64.8087 25.9549 64.5051 25.6904C63.8685 25.1322 62.9625 25.0832 62.2769 25.519L33.6091 43.9078C33.423 44.0302 33.1831 44.0302 32.9921 43.9078L4.32427 25.519C3.63867 25.0783 2.73759 25.1322 2.09607 25.6904C1.67981 26.0528 1.46924 26.5964 1.46924 27.1498V76.4933C1.46924 77.2034 2.0422 77.7763 2.75228 77.7763H15.4456C16.1557 77.7763 16.7287 77.2034 16.7287 76.4933V51.6061C16.7287 51.6061 29.3339 59.6374 32.5562 61.6207C33.0117 61.8998 33.5846 61.8998 34.0401 61.6207C37.2673 59.6374 49.8676 51.6061 49.8676 51.6061V76.4933C49.8676 77.2034 50.4405 77.7763 51.1506 77.7763H63.844C64.5541 77.7763 65.127 77.2034 65.127 76.4933V75.2102H62.5658Z" fill="white"/>
<path d="M102.301 4.98529C101.88 4.68166 101.317 4.66208 100.876 4.93632L90.504 11.3858L83.3248 1.36631C83.0848 1.0333 82.7029 0.83252 82.2915 0.83252C81.9144 0.83252 81.4933 1.0284 81.2533 1.36141L73.9811 11.3418L63.6873 4.93632C63.2417 4.65718 62.6687 4.68166 62.2475 4.99508C61.8264 5.3085 61.6403 5.84718 61.7774 6.35648L65.3229 19.4808C65.4796 20.0538 65.9938 20.4259 66.557 20.4259C66.6696 20.4259 66.7774 20.4112 66.89 20.3819C67.5707 20.1958 67.9772 19.4955 67.7911 18.8099L65.0928 8.82464L73.6383 14.1429C73.6628 14.1576 73.6872 14.1674 73.7117 14.1821C73.7509 14.2017 73.7901 14.2213 73.8293 14.2409C73.8684 14.2556 73.9076 14.2702 73.9468 14.28C73.986 14.2898 74.0251 14.3045 74.0692 14.3094C74.1084 14.3192 74.1476 14.3241 74.1916 14.3241C74.2357 14.329 74.2749 14.3339 74.319 14.3339C74.3581 14.3339 74.3973 14.329 74.4365 14.329C74.4806 14.3241 74.5197 14.3192 74.5638 14.3143C74.603 14.3045 74.6373 14.2947 74.6765 14.2849C74.7205 14.2751 74.7597 14.2605 74.7989 14.2409C74.8332 14.2262 74.8674 14.2115 74.9017 14.1919C74.9409 14.1723 74.9801 14.1527 75.0144 14.1282C75.0486 14.1086 75.078 14.0793 75.1123 14.0548C75.1466 14.0303 75.1809 14.0009 75.2102 13.9715C75.2396 13.9421 75.269 13.9079 75.2935 13.8785C75.3131 13.854 75.3327 13.8393 75.3523 13.8148L82.2817 4.30459L89.123 13.854C89.1377 13.8736 89.1524 13.8834 89.1671 13.903C89.2062 13.9568 89.2503 14.0009 89.2993 14.045C89.3238 14.0695 89.3483 14.0891 89.3776 14.1086C89.4266 14.1478 89.4805 14.1821 89.5393 14.2164C89.5637 14.2311 89.5882 14.2458 89.6176 14.2605C89.696 14.2996 89.7792 14.329 89.8625 14.3486C89.8674 14.3486 89.8723 14.3535 89.8772 14.3535C89.9653 14.3731 90.0584 14.3829 90.1514 14.3878C90.1563 14.3878 90.1661 14.3878 90.171 14.3878C90.1857 14.3878 90.1955 14.3829 90.2102 14.3829C90.313 14.378 90.4109 14.3633 90.5138 14.3339C90.5334 14.329 90.553 14.3241 90.5774 14.3192C90.6705 14.2898 90.7635 14.2507 90.8468 14.1968L99.5882 8.76097L97.1641 18.854C96.9976 19.5396 97.4236 20.2301 98.1092 20.3966C98.2121 20.421 98.31 20.4308 98.408 20.4308C98.9858 20.4308 99.5098 20.0342 99.6518 19.4514L102.806 6.3271C102.918 5.8129 102.722 5.28891 102.301 4.98529Z" fill="white"/>
<path d="M108.819 58.3298C108.662 58.0212 108.393 57.7911 108.065 57.6833L96.5029 53.9958C95.8369 53.7852 95.1268 54.1427 94.9015 54.7989C93.07 60.1368 88.8389 63.08 82.9868 63.08C82.8252 63.08 82.6685 63.1143 82.5265 63.1681C75.7391 62.9233 70.2886 57.3405 70.2886 50.4944C70.2886 43.4915 75.9839 37.7961 82.9868 37.7961C82.9917 37.7961 82.9966 37.7961 83.0015 37.7961C88.6577 37.801 92.6978 40.4601 94.6861 45.4944C94.9407 46.1408 95.6655 46.464 96.3168 46.2241L107.698 42.0468C108.021 41.9293 108.285 41.6844 108.423 41.3661C108.56 41.0478 108.574 40.6952 108.447 40.372C104.284 29.8529 94.2894 23.0557 82.9819 23.0557C67.8841 23.0557 55.6021 35.3377 55.6021 50.4356C55.6021 65.5334 67.8841 77.8154 82.9819 77.8154C94.6812 77.8154 105.092 70.3816 108.883 59.3141C109 58.9958 108.976 58.6383 108.819 58.3298ZM82.9868 75.264C69.2993 75.264 58.1633 64.128 58.1633 50.4405C58.1633 36.753 69.2993 25.6169 82.9868 25.6169C92.7958 25.6169 101.518 31.2633 105.558 40.1075L96.5714 43.4082C94.0347 38.1242 89.2551 35.2398 82.9917 35.2398C82.977 35.2398 82.9623 35.2447 82.9476 35.2447C74.5539 35.2692 67.7323 42.1007 67.7323 50.4992C67.7323 58.9125 74.5784 65.7587 82.9917 65.7587C83.1876 65.7587 83.3737 65.7097 83.5451 65.6314C89.7693 65.4551 94.5538 62.2817 96.88 56.8116L106.013 59.7254C102.242 69.0692 93.1533 75.264 82.9868 75.264Z" fill="white"/>
<path d="M0.612174 163.873C0.53382 163.794 0.489746 163.692 0.489746 163.569V151.316C0.489746 151.194 0.528923 151.091 0.612174 151.013C0.690528 150.935 0.793368 150.895 0.915796 150.895H1.763C1.88543 150.895 1.98827 150.935 2.06662 151.013C2.14498 151.091 2.18415 151.194 2.18415 151.316V152.129C2.87465 151.184 3.88346 150.709 5.21058 150.709C6.50342 150.709 7.47305 151.116 8.11948 151.929C8.7659 152.742 9.11359 153.785 9.16256 155.068C9.17236 155.205 9.18215 155.41 9.18215 155.695C9.18215 155.979 9.17726 156.189 9.16256 156.321C9.11359 157.59 8.761 158.633 8.10968 159.451C7.45836 160.268 6.49363 160.68 5.21058 160.68C3.92753 160.68 2.93341 160.219 2.22333 159.294V163.574C2.22333 163.696 2.18415 163.799 2.1107 163.878C2.03724 163.956 1.9393 164 1.81687 164H0.915796C0.793368 163.99 0.690528 163.951 0.612174 163.873ZM6.73849 158.363C7.14005 157.82 7.35552 157.11 7.3947 156.223C7.4045 156.101 7.41429 155.92 7.41429 155.69C7.41429 153.363 6.55239 152.203 4.8286 152.203C3.9814 152.203 3.34477 152.482 2.91872 153.045C2.49267 153.603 2.26251 154.274 2.22823 155.048L2.20374 155.743L2.22333 156.463C2.24782 157.188 2.48288 157.825 2.92362 158.363C3.36436 158.902 4.00099 159.176 4.82371 159.176C5.70029 159.176 6.33692 158.907 6.73849 158.363Z" fill="white"/>
<path d="M13.0559 160.303C12.5368 160.058 12.1304 159.72 11.8268 159.299C11.5231 158.873 11.3762 158.403 11.3762 157.888C11.3762 157.075 11.7092 156.409 12.3801 155.885C13.051 155.361 13.957 155.019 15.1029 154.862L17.8502 154.475V153.941C17.8502 152.688 17.1304 152.061 15.6906 152.061C15.147 152.061 14.7063 152.173 14.3635 152.404C14.0207 152.629 13.7611 152.898 13.5897 153.207C13.5505 153.319 13.5065 153.398 13.4526 153.447C13.3987 153.496 13.3204 153.52 13.2224 153.52H12.4291C12.3165 153.52 12.2234 153.481 12.1451 153.398C12.0667 153.319 12.0275 153.221 12.0275 153.114C12.0373 152.82 12.1794 152.482 12.4438 152.11C12.7082 151.733 13.1196 151.41 13.673 151.13C14.2264 150.856 14.9119 150.714 15.72 150.714C17.0961 150.714 18.0902 151.037 18.6925 151.684C19.2949 152.33 19.5985 153.133 19.5985 154.093V160.073C19.5985 160.195 19.5593 160.298 19.4761 160.376C19.3977 160.455 19.2949 160.499 19.1725 160.499H18.3155C18.193 160.499 18.0902 160.459 18.0118 160.376C17.9335 160.298 17.8894 160.195 17.8894 160.073V159.279C17.6201 159.671 17.2234 160.004 16.7092 160.273C16.1901 160.543 15.5339 160.68 14.7357 160.68C14.1333 160.67 13.575 160.548 13.0559 160.303ZM17.0912 158.501C17.6005 157.977 17.8551 157.222 17.8551 156.238V155.719L15.7151 156.032C14.8434 156.155 14.1823 156.361 13.7415 156.649C13.3008 156.938 13.0755 157.306 13.0755 157.746C13.0755 158.241 13.2763 158.618 13.6828 158.883C14.0892 159.147 14.5692 159.279 15.1225 159.279C15.9208 159.284 16.577 159.025 17.0912 158.501Z" fill="white"/>
<path d="M22.9579 160.366C22.8795 160.288 22.8403 160.185 22.8403 160.063V151.336C22.8403 151.214 22.8795 151.111 22.9579 151.023C23.0362 150.935 23.1391 150.895 23.2615 150.895H24.1087C24.2311 150.895 24.334 150.939 24.4221 151.023C24.5103 151.111 24.5494 151.214 24.5494 151.336V152.149C25.0538 151.312 25.9157 150.895 27.1351 150.895H27.855C27.9774 150.895 28.0803 150.935 28.1586 151.013C28.237 151.091 28.281 151.194 28.281 151.317V152.071C28.281 152.193 28.2419 152.291 28.1586 152.365C28.0803 152.438 27.9774 152.477 27.855 152.477H26.7482C26.0822 152.477 25.5631 152.668 25.1812 153.06C24.7992 153.447 24.6082 153.971 24.6082 154.637V160.063C24.6082 160.185 24.5641 160.288 24.4809 160.366C24.3927 160.445 24.2899 160.489 24.1675 160.489H23.2615C23.1391 160.484 23.0362 160.445 22.9579 160.366Z" fill="white"/>
<path d="M35.4847 160.366C35.4064 160.288 35.3672 160.185 35.3672 160.063V148.011C35.3672 147.874 35.4064 147.766 35.4847 147.688C35.5631 147.609 35.6659 147.565 35.7883 147.565H36.709C36.9049 147.565 37.0665 147.663 37.1889 147.859L41.0821 155.313L45.0145 147.859C45.039 147.786 45.0929 147.717 45.1712 147.658C45.2496 147.595 45.3524 147.565 45.4749 147.565H46.3808C46.518 147.565 46.6257 147.604 46.704 147.688C46.7824 147.766 46.8216 147.874 46.8216 148.011V160.063C46.8216 160.185 46.7775 160.288 46.6943 160.366C46.6061 160.445 46.5033 160.489 46.3808 160.489H45.4749C45.3524 160.489 45.2496 160.45 45.1712 160.366C45.0929 160.288 45.0537 160.185 45.0537 160.063V150.983L41.9734 156.997C41.851 157.257 41.6551 157.384 41.3809 157.384H40.8079C40.5386 157.384 40.3378 157.257 40.2153 156.997L37.1155 150.983V160.063C37.1155 160.185 37.0763 160.288 36.9979 160.366C36.9196 160.445 36.8167 160.489 36.6943 160.489H35.7883C35.6659 160.484 35.568 160.445 35.4847 160.366Z" fill="white"/>
<path d="M51.366 160.303C50.8469 160.058 50.4404 159.72 50.1368 159.299C49.8332 158.873 49.6863 158.403 49.6863 157.888C49.6863 157.075 50.0193 156.409 50.6902 155.885C51.3611 155.361 52.2671 155.019 53.413 154.862L56.1603 154.475V153.941C56.1603 152.688 55.4404 152.061 54.0007 152.061C53.4571 152.061 53.0163 152.173 52.6735 152.404C52.3307 152.629 52.0712 152.898 51.8998 153.207C51.8606 153.319 51.8165 153.398 51.7627 153.447C51.7088 153.496 51.6304 153.52 51.5325 153.52H50.7392C50.6265 153.52 50.5335 153.481 50.4551 153.398C50.3768 153.319 50.3376 153.221 50.3376 153.114C50.3474 152.82 50.4894 152.482 50.7539 152.11C51.0183 151.733 51.4297 151.41 51.983 151.13C52.5364 150.856 53.222 150.714 54.03 150.714C55.4061 150.714 56.4002 151.037 57.0026 151.684C57.6049 152.33 57.9086 153.133 57.9086 154.093V160.073C57.9086 160.195 57.8694 160.298 57.7861 160.376C57.7078 160.455 57.6049 160.499 57.4825 160.499H56.6353C56.5129 160.499 56.41 160.459 56.3317 160.376C56.2533 160.298 56.2093 160.195 56.2093 160.073V159.279C55.9399 159.671 55.5432 160.004 55.0291 160.273C54.51 160.543 53.8537 160.68 53.0555 160.68C52.4434 160.67 51.8802 160.548 51.366 160.303ZM55.3963 158.501C55.9056 157.977 56.1603 157.222 56.1603 156.238V155.719L54.0202 156.032C53.1486 156.155 52.4874 156.361 52.0467 156.649C51.606 156.938 51.3807 157.306 51.3807 157.746C51.3807 158.241 51.5815 158.618 51.9879 158.883C52.3944 159.147 52.8743 159.279 53.4277 159.279C54.2308 159.284 54.887 159.025 55.3963 158.501Z" fill="white"/>
<path d="M61.8851 157.237V152.365H60.4453C60.3229 152.365 60.2201 152.325 60.1417 152.242C60.0634 152.164 60.0193 152.061 60.0193 151.938V151.312C60.0193 151.189 60.0585 151.086 60.1417 151.008C60.2201 150.93 60.3229 150.891 60.4453 150.891H61.8851V147.81C61.8851 147.688 61.9243 147.585 62.0075 147.507C62.0859 147.428 62.1887 147.384 62.3111 147.384H63.1779C63.3004 147.384 63.4032 147.423 63.4816 147.507C63.5599 147.585 63.5991 147.688 63.5991 147.81V150.891H65.886C66.0085 150.891 66.1113 150.93 66.1897 151.008C66.268 151.086 66.3072 151.189 66.3072 151.312V151.938C66.3072 152.061 66.268 152.164 66.1897 152.242C66.1113 152.32 66.0085 152.365 65.886 152.365H63.5991V157.105C63.5991 157.722 63.7019 158.187 63.9125 158.501C64.1231 158.814 64.4659 158.971 64.9458 158.971H66.0721C66.1946 158.971 66.2974 159.01 66.3758 159.093C66.4541 159.172 66.4982 159.274 66.4982 159.397V160.063C66.4982 160.185 66.459 160.288 66.3758 160.366C66.2974 160.445 66.1946 160.489 66.0721 160.489H64.7989C62.8547 160.484 61.8851 159.402 61.8851 157.237Z" fill="white"/>
<path d="M68.9957 160.366C68.9174 160.288 68.8733 160.185 68.8733 160.063V147.81C68.8733 147.688 68.9125 147.585 68.9957 147.507C69.0741 147.428 69.1769 147.384 69.2993 147.384H70.22C70.3424 147.384 70.4453 147.423 70.5236 147.507C70.602 147.585 70.6461 147.688 70.6461 147.81V152.11C71.0035 151.654 71.4198 151.307 71.8997 151.067C72.3796 150.827 72.9771 150.704 73.6921 150.704C74.8723 150.704 75.7929 151.081 76.4492 151.841C77.1054 152.595 77.4384 153.604 77.4384 154.857V160.063C77.4384 160.185 77.3992 160.288 77.3159 160.366C77.2376 160.445 77.1347 160.489 77.0123 160.489H76.0917C75.9692 160.489 75.8664 160.45 75.788 160.366C75.7097 160.288 75.6656 160.185 75.6656 160.063V154.95C75.6656 154.079 75.455 153.398 75.029 152.923C74.6029 152.443 73.9908 152.203 73.1926 152.203C72.4188 152.203 71.8018 152.448 71.3365 152.933C70.8762 153.417 70.6461 154.093 70.6461 154.955V160.068C70.6461 160.19 70.6069 160.293 70.5236 160.371C70.4453 160.45 70.3424 160.494 70.22 160.494H69.2993C69.1769 160.484 69.079 160.445 68.9957 160.366Z" fill="white"/>
<path d="M80.6607 148.981C80.5824 148.902 80.5432 148.799 80.5432 148.677V147.683C80.5432 147.56 80.5824 147.458 80.6607 147.369C80.7391 147.281 80.8419 147.242 80.9644 147.242H82.125C82.2474 147.242 82.3503 147.286 82.4384 147.369C82.5265 147.458 82.5657 147.56 82.5657 147.683V148.677C82.5657 148.799 82.5217 148.902 82.4384 148.981C82.3503 149.059 82.2474 149.103 82.125 149.103H80.9644C80.8419 149.098 80.7391 149.059 80.6607 148.981ZM80.8077 160.366C80.7293 160.288 80.6901 160.185 80.6901 160.063V151.316C80.6901 151.194 80.7293 151.091 80.8077 151.013C80.886 150.935 80.9889 150.895 81.1113 150.895H81.9977C82.1201 150.895 82.2229 150.935 82.3013 151.013C82.3796 151.091 82.4188 151.194 82.4188 151.316V160.063C82.4188 160.185 82.3796 160.288 82.3013 160.366C82.2229 160.445 82.1201 160.489 81.9977 160.489H81.1113C80.9889 160.484 80.886 160.445 80.8077 160.366Z" fill="white"/>
<path d="M86.5472 159.5C85.793 158.716 85.3767 157.653 85.3033 156.297L85.2837 155.67L85.3033 155.063C85.3914 153.736 85.8126 152.678 86.5667 151.889C87.3209 151.101 88.3248 150.709 89.5638 150.709C90.9301 150.709 91.9879 151.145 92.7371 152.012C93.4864 152.879 93.8635 154.049 93.8635 155.528V155.841C93.8635 155.964 93.8243 156.067 93.7459 156.145C93.6676 156.223 93.5647 156.267 93.4423 156.267H87.0565V156.434C87.0907 157.232 87.3356 157.913 87.7861 158.471C88.2367 159.029 88.8292 159.313 89.5687 159.313C90.1367 159.313 90.5971 159.201 90.9644 158.971C91.3268 158.745 91.5961 158.505 91.7675 158.261C91.8801 158.114 91.9634 158.026 92.0172 157.991C92.0711 157.962 92.174 157.947 92.3209 157.947H93.2268C93.3395 157.947 93.4276 157.977 93.506 158.04C93.5794 158.104 93.6186 158.187 93.6186 158.3C93.6186 158.569 93.4472 158.897 93.1093 159.279C92.7714 159.661 92.2964 159.989 91.6891 160.268C91.0819 160.543 90.3816 160.685 89.5932 160.685C88.315 160.67 87.3013 160.278 86.5472 159.5ZM92.1103 154.984V154.931C92.1103 154.083 91.8801 153.388 91.4198 152.854C90.9595 152.32 90.3424 152.051 89.5638 152.051C88.79 152.051 88.1779 152.32 87.7274 152.854C87.2768 153.388 87.0516 154.083 87.0516 154.931V154.984H92.1103Z" fill="white"/>
<path d="M97.5362 159.534C96.8947 158.775 96.5764 157.771 96.5764 156.517V151.312C96.5764 151.189 96.6156 151.086 96.6988 151.008C96.7772 150.93 96.88 150.89 97.0025 150.89H97.9231C98.0456 150.89 98.1484 150.93 98.2267 151.008C98.3051 151.086 98.3492 151.189 98.3492 151.312V156.424C98.3492 158.256 99.1474 159.171 100.749 159.171C101.523 159.171 102.14 158.927 102.595 158.442C103.05 157.957 103.276 157.281 103.276 156.419V151.307C103.276 151.184 103.315 151.081 103.398 151.003C103.476 150.925 103.579 150.885 103.702 150.885H104.622C104.745 150.885 104.843 150.925 104.916 151.003C104.99 151.081 105.029 151.184 105.029 151.307V160.053C105.029 160.175 104.99 160.278 104.916 160.357C104.843 160.435 104.745 160.479 104.622 160.479H103.756C103.633 160.479 103.53 160.44 103.452 160.357C103.374 160.278 103.334 160.175 103.334 160.053V159.24C102.992 159.71 102.57 160.063 102.081 160.303C101.586 160.543 100.979 160.66 100.254 160.66C99.0788 160.67 98.1729 160.293 97.5362 159.534Z" fill="white"/>
<path d="M114.216 159.676C113.329 159.01 112.864 158.04 112.815 156.762C112.815 156.649 112.849 156.556 112.928 156.478C113.001 156.4 113.099 156.356 113.222 156.356H114.216C114.475 156.356 114.632 156.498 114.696 156.782C114.769 157.57 115.073 158.153 115.602 158.535C116.131 158.917 116.797 159.108 117.595 159.108C118.515 159.108 119.226 158.804 119.725 158.197C120.225 157.59 120.474 156.767 120.474 155.734V149.181H113.922C113.8 149.181 113.697 149.142 113.618 149.059C113.54 148.981 113.496 148.878 113.496 148.755V147.996C113.496 147.874 113.535 147.771 113.618 147.693C113.697 147.614 113.8 147.57 113.922 147.57H121.875C122.012 147.57 122.12 147.609 122.198 147.693C122.276 147.771 122.321 147.879 122.321 148.016V155.768C122.321 157.271 121.899 158.461 121.057 159.348C120.215 160.234 119.049 160.675 117.561 160.675C116.214 160.67 115.102 160.337 114.216 159.676Z" fill="white"/>
<path d="M126.689 160.303C126.17 160.058 125.763 159.72 125.46 159.299C125.156 158.873 125.009 158.403 125.009 157.888C125.009 157.075 125.342 156.409 126.013 155.885C126.684 155.361 127.59 155.019 128.736 154.862L131.483 154.475V153.941C131.483 152.688 130.763 152.061 129.324 152.061C128.78 152.061 128.339 152.173 127.997 152.404C127.654 152.629 127.394 152.898 127.223 153.207C127.184 153.319 127.14 153.398 127.086 153.447C127.032 153.496 126.953 153.52 126.856 153.52H126.062C125.95 153.52 125.856 153.481 125.778 153.398C125.7 153.319 125.661 153.221 125.661 153.114C125.67 152.82 125.812 152.482 126.077 152.11C126.341 151.733 126.753 151.41 127.306 151.13C127.859 150.856 128.545 150.714 129.353 150.714C130.729 150.714 131.723 151.037 132.326 151.684C132.928 152.33 133.232 153.133 133.232 154.093V160.073C133.232 160.195 133.192 160.298 133.109 160.376C133.031 160.455 132.928 160.499 132.806 160.499H131.958C131.836 160.499 131.733 160.459 131.655 160.376C131.576 160.298 131.532 160.195 131.532 160.073V159.279C131.263 159.671 130.866 160.004 130.352 160.273C129.833 160.543 129.177 160.68 128.379 160.68C127.766 160.67 127.208 160.548 126.689 160.303ZM130.724 158.501C131.234 157.977 131.488 157.222 131.488 156.238V155.719L129.348 156.032C128.476 156.155 127.815 156.361 127.375 156.649C126.934 156.938 126.709 157.306 126.709 157.746C126.709 158.241 126.909 158.618 127.316 158.883C127.722 159.147 128.202 159.279 128.756 159.279C129.559 159.284 130.21 159.025 130.724 158.501Z" fill="white"/>
<path d="M136.61 160.366C136.532 160.288 136.488 160.185 136.488 160.063V147.81C136.488 147.688 136.527 147.585 136.61 147.507C136.689 147.428 136.792 147.384 136.914 147.384H137.835C137.957 147.384 138.06 147.423 138.138 147.507C138.217 147.585 138.261 147.688 138.261 147.81V152.11C138.618 151.654 139.035 151.307 139.514 151.067C139.994 150.827 140.592 150.704 141.307 150.704C142.487 150.704 143.408 151.081 144.064 151.841C144.72 152.595 145.053 153.604 145.053 154.857V160.063C145.053 160.185 145.014 160.288 144.931 160.366C144.852 160.445 144.749 160.489 144.627 160.489H143.706C143.584 160.489 143.481 160.45 143.403 160.366C143.324 160.288 143.28 160.185 143.28 160.063V154.95C143.28 154.079 143.07 153.398 142.644 152.923C142.218 152.448 141.606 152.203 140.807 152.203C140.034 152.203 139.417 152.448 138.951 152.933C138.491 153.417 138.261 154.093 138.261 154.955V160.068C138.261 160.19 138.222 160.293 138.138 160.371C138.06 160.45 137.957 160.494 137.835 160.494H136.914C136.792 160.484 136.689 160.445 136.61 160.366Z" fill="white"/>
<path d="M148.417 160.366C148.339 160.288 148.3 160.185 148.3 160.063V151.316C148.3 151.194 148.339 151.091 148.417 151.013C148.496 150.935 148.599 150.895 148.721 150.895H149.588C149.71 150.895 149.813 150.935 149.891 151.013C149.97 151.091 150.009 151.194 150.009 151.316V152.129C150.366 151.674 150.788 151.326 151.272 151.077C151.757 150.832 152.364 150.709 153.089 150.709C154.269 150.709 155.19 151.086 155.846 151.845C156.503 152.6 156.836 153.608 156.836 154.862V160.068C156.836 160.19 156.796 160.293 156.718 160.371C156.64 160.45 156.537 160.494 156.414 160.494H155.494C155.371 160.494 155.268 160.455 155.19 160.371C155.112 160.293 155.073 160.19 155.073 160.068V154.955C155.073 154.083 154.862 153.403 154.436 152.928C154.01 152.453 153.398 152.208 152.599 152.208C151.826 152.208 151.209 152.453 150.753 152.937C150.298 153.422 150.073 154.098 150.073 154.96V160.073C150.073 160.195 150.033 160.298 149.95 160.376C149.872 160.455 149.769 160.499 149.647 160.499H148.726C148.599 160.484 148.501 160.445 148.417 160.366Z" fill="white"/>
<path d="M160.043 148.981C159.965 148.902 159.926 148.799 159.926 148.677V147.683C159.926 147.56 159.965 147.458 160.043 147.369C160.122 147.281 160.224 147.242 160.347 147.242H161.508C161.63 147.242 161.733 147.286 161.821 147.369C161.909 147.458 161.948 147.56 161.948 147.683V148.677C161.948 148.799 161.904 148.902 161.821 148.981C161.733 149.059 161.63 149.103 161.508 149.103H160.347C160.224 149.098 160.127 149.059 160.043 148.981ZM160.19 160.366C160.112 160.288 160.073 160.185 160.073 160.063V151.316C160.073 151.194 160.112 151.091 160.19 151.013C160.269 150.935 160.371 150.895 160.494 150.895H161.38C161.503 150.895 161.605 150.935 161.684 151.013C161.762 151.091 161.801 151.194 161.801 151.316V160.063C161.801 160.185 161.762 160.288 161.684 160.366C161.605 160.445 161.503 160.489 161.38 160.489H160.494C160.371 160.484 160.273 160.445 160.19 160.366Z" fill="white"/>
<path d="M165.91 159.554C165.166 158.809 164.769 157.766 164.72 156.424L164.7 155.685L164.72 154.945C164.769 153.604 165.166 152.56 165.91 151.816C166.654 151.072 167.683 150.7 169 150.7C169.887 150.7 170.636 150.861 171.253 151.18C171.87 151.498 172.325 151.894 172.629 152.36C172.933 152.83 173.094 153.295 173.119 153.76C173.128 153.883 173.094 153.981 173.006 154.054C172.918 154.128 172.815 154.167 172.693 154.167H171.806C171.684 154.167 171.591 154.142 171.532 154.093C171.468 154.044 171.41 153.946 171.346 153.799C171.135 153.207 170.841 152.786 170.459 152.536C170.077 152.286 169.598 152.159 169.02 152.159C168.256 152.159 167.649 152.394 167.203 152.869C166.752 153.344 166.512 154.064 166.473 155.038L166.454 155.704L166.473 156.331C166.512 157.316 166.752 158.04 167.193 158.511C167.634 158.981 168.246 159.211 169.02 159.211C169.598 159.211 170.077 159.083 170.459 158.834C170.841 158.584 171.135 158.158 171.346 157.57C171.41 157.423 171.468 157.321 171.532 157.267C171.596 157.213 171.684 157.183 171.806 157.183H172.693C172.815 157.183 172.918 157.223 173.006 157.306C173.094 157.384 173.128 157.487 173.119 157.609C173.094 158.065 172.933 158.53 172.629 159C172.325 159.475 171.87 159.872 171.263 160.19C170.655 160.509 169.901 160.67 169 160.67C167.688 160.67 166.654 160.298 165.91 159.554Z" fill="white"/>
<path d="M176.042 160.366C175.964 160.288 175.92 160.185 175.92 160.063V147.81C175.92 147.688 175.959 147.585 176.042 147.507C176.12 147.428 176.223 147.384 176.346 147.384H177.266C177.389 147.384 177.492 147.423 177.57 147.507C177.648 147.585 177.692 147.688 177.692 147.81V152.11C178.05 151.654 178.466 151.307 178.946 151.067C179.426 150.827 180.023 150.704 180.738 150.704C181.919 150.704 182.839 151.081 183.496 151.841C184.157 152.595 184.485 153.604 184.485 154.857V160.063C184.485 160.185 184.446 160.288 184.367 160.366C184.284 160.445 184.186 160.489 184.064 160.489H183.143C183.021 160.489 182.918 160.45 182.839 160.366C182.756 160.288 182.717 160.185 182.717 160.063V154.95C182.717 154.079 182.506 153.398 182.08 152.923C181.654 152.443 181.042 152.203 180.244 152.203C179.47 152.203 178.853 152.448 178.388 152.933C177.927 153.417 177.697 154.093 177.697 154.955V160.068C177.697 160.19 177.658 160.293 177.575 160.371C177.497 160.45 177.394 160.494 177.271 160.494H176.351C176.223 160.484 176.12 160.445 176.042 160.366Z" fill="white"/>
</svg>
